<svg width="430" height="57" viewBox="0 0 430 57" fill="none" xmlns="http://www.w3.org/2000/svg">
<path d="M23.57 9.59C21.5633 11.69 19.6733 14.21 17.9 17.15C16.1733 20.0433 14.9833 22.6333 14.33 24.92C13.91 26.3667 13.7 27.6967 13.7 28.91C13.7 30.59 14.0733 31.99 14.82 33.11C15.5667 34.23 16.6633 35 18.11 35.42C19.37 35.7933 20.7933 35.98 22.38 35.98C23.5467 35.98 25.0167 35.8633 26.79 35.63V2.17H39.6V32.27C41.7467 31.4767 43.94 30.4967 46.18 29.33L50.03 40.11C46.7633 42.1167 43.2867 43.7033 39.6 44.87V56H26.79V47.53C25.3433 47.67 23.8733 47.74 22.38 47.74C17.0133 47.74 12.65 46.9 9.29 45.22C6.39667 43.7267 4.25 41.6967 2.85 39.13C1.45 36.5633 0.75 33.6467 0.75 30.38C0.75 28.0933 1.07667 25.7133 1.73 23.24C2.61667 19.74 4.20333 16.0767 6.49 12.25C8.82333 8.37667 11.5533 4.9 14.68 1.82L23.57 9.59ZM50.1837 28.56C50.1837 22.54 51.0937 17.4533 52.9137 13.3C54.7337 9.1 57.3003 5.97333 60.6137 3.92C63.927 1.82 67.847 0.769998 72.3737 0.769998C79.5137 0.769998 85.0203 3.12666 88.8937 7.84C92.8137 12.5533 94.7737 19.46 94.7737 28.56C94.7737 37.7533 92.8603 44.6833 89.0337 49.35C85.2537 54.0167 79.7003 56.35 72.3737 56.35C67.847 56.35 63.927 55.3233 60.6137 53.27C57.3003 51.17 54.7337 48.0433 52.9137 43.89C51.0937 39.69 50.1837 34.58 50.1837 28.56ZM63.4137 28.56C63.4137 33.8333 64.207 37.8 65.7937 40.46C67.427 43.0733 69.6203 44.38 72.3737 44.38C75.3137 44.38 77.577 43.0733 79.1637 40.46C80.7503 37.8 81.5437 33.8333 81.5437 28.56C81.5437 23.1 80.7503 19.11 79.1637 16.59C77.6237 14.07 75.3603 12.81 72.3737 12.81C69.4337 12.81 67.1937 14.07 65.6537 16.59C64.1603 19.11 63.4137 23.1 63.4137 28.56ZM121.597 9.59C119.591 11.69 117.701 14.21 115.927 17.15C114.201 20.0433 113.011 22.6333 112.357 24.92C111.937 26.3667 111.727 27.6967 111.727 28.91C111.727 30.59 112.101 31.99 112.847 33.11C113.594 34.23 114.691 35 116.137 35.42C117.397 35.7933 118.821 35.98 120.407 35.98C121.574 35.98 123.044 35.8633 124.817 35.63V2.17H137.627V32.27C139.774 31.4767 141.967 30.4967 144.207 29.33L148.057 40.11C144.791 42.1167 141.314 43.7033 137.627 44.87V56H124.817V47.53C123.371 47.67 121.901 47.74 120.407 47.74C115.041 47.74 110.677 46.9 107.317 45.22C104.424 43.7267 102.277 41.6967 100.877 39.13C99.4773 36.5633 98.7773 33.6467 98.7773 30.38C98.7773 28.0933 99.104 25.7133 99.7573 23.24C100.644 19.74 102.231 16.0767 104.517 12.25C106.851 8.37667 109.581 4.9 112.707 1.82L121.597 9.59ZM168.777 11.9V1.05H211.337V11.9H186.557V22.75H210.077V33.04H186.557V45.15H211.757V56H172.977V11.9H168.777ZM264.235 19.6C264.235 23.4267 263.279 26.81 261.365 29.75C259.452 32.69 256.699 34.8833 253.105 36.33L265.145 56H251.425L240.435 38.15H234.205V56H220.555V15.96H234.205V27.51H242.745C245.545 27.51 247.739 26.7867 249.325 25.34C250.959 23.8933 251.775 21.98 251.775 19.6C251.775 14.6067 248.765 12.11 242.745 12.11H216.355V1.05H243.025C250.025 1.05 255.299 2.75333 258.845 6.16C262.439 9.52 264.235 14 264.235 19.6ZM316.735 19.6C316.735 23.4267 315.779 26.81 313.865 29.75C311.952 32.69 309.199 34.8833 305.605 36.33L317.645 56H303.925L292.935 38.15H286.705V56H273.055V15.96H286.705V27.51H295.245C298.045 27.51 300.239 26.7867 301.825 25.34C303.459 23.8933 304.275 21.98 304.275 19.6C304.275 14.6067 301.265 12.11 295.245 12.11H268.855V1.05H295.525C302.525 1.05 307.799 2.75333 311.345 6.16C314.939 9.52 316.735 14 316.735 19.6ZM349.355 56.35C344.409 56.35 339.882 55.2767 335.775 53.13C331.669 50.9367 328.402 47.74 325.975 43.54C323.549 39.2933 322.335 34.23 322.335 28.35C322.335 22.47 323.549 17.43 325.975 13.23C328.402 8.98333 331.669 5.78667 335.775 3.64C339.882 1.44667 344.409 0.349999 349.355 0.349999C354.302 0.349999 358.829 1.44667 362.935 3.64C367.042 5.78667 370.309 8.98333 372.735 13.23C375.162 17.43 376.375 22.47 376.375 28.35C376.375 34.23 375.162 39.2933 372.735 43.54C370.309 47.74 367.042 50.9367 362.935 53.13C358.829 55.2767 354.302 56.35 349.355 56.35ZM349.355 11.76C345.202 11.76 341.889 13.2067 339.415 16.1C336.942 18.9933 335.705 23.0767 335.705 28.35C335.705 33.6233 336.942 37.7067 339.415 40.6C341.889 43.4933 345.202 44.94 349.355 44.94C353.509 44.94 356.822 43.4933 359.295 40.6C361.769 37.7067 363.005 33.6233 363.005 28.35C363.005 23.0767 361.769 18.9933 359.295 16.1C356.822 13.2067 353.509 11.76 349.355 11.76ZM428.708 19.6C428.708 23.4267 427.751 26.81 425.838 29.75C423.925 32.69 421.171 34.8833 417.578 36.33L429.618 56H415.898L404.908 38.15H398.678V56H385.028V15.96H398.678V27.51H407.218C410.018 27.51 412.211 26.7867 413.798 25.34C415.431 23.8933 416.248 21.98 416.248 19.6C416.248 14.6067 413.238 12.11 407.218 12.11H380.828V1.05H407.498C414.498 1.05 419.771 2.75333 423.318 6.16C426.911 9.52 428.708 14 428.708 19.6Z" fill="url(#paint0_linear_743_1056)"/>
<defs>
<linearGradient id="paint0_linear_743_1056" x1="-1" y1="34" x2="432" y2="34" gradientUnits="userSpaceOnUse">
<stop stop-color="#06B796"/>
<stop offset="1" stop-color="#DFF7E5"/>
</linearGradient>
</defs>
</svg>
