<svg width="56" height="51" viewBox="0 0 56 51" fill="none" xmlns="http://www.w3.org/2000/svg">
<path d="M19.1405 13.8662C15.3898 17.588 17.1159 22.2544 18.4477 24.1223C14.582 24.3261 12.594 26.7217 11.9933 32.0393C11.3927 37.357 18.4122 40.1585 20.5207 40.0474C20.6596 42.683 20.8171 45.6701 22.6854 47.686C28.1681 52.7535 33.256 48.7733 35.1146 46.1498C37.5439 47.6662 43.2735 49.8427 46.7579 46.417C50.2422 42.9912 48.8996 38.0227 47.7927 35.9666C50.0523 35.3776 54.5028 32.8994 54.2286 27.6983C53.4438 20.8327 48.0009 19.8627 45.3776 20.2359C46.3886 18.2444 47.1416 13.5882 42.066 10.8956C35.7216 7.52991 31.9118 12.1357 30.9594 14.1241C30.3489 12.5705 23.8288 9.21408 19.1405 13.8662Z" fill="#FBFBFB"/>
<path d="M25.2652 5.00587C38.6356 0.824929 50.3601 12.7755 46.5945 17.9542C43.4627 17.221 40.4386 17.0093 37.5693 17.1798C31.4132 17.5455 25.9698 19.6705 21.7052 22.1796C18.1131 24.2931 15.3574 26.679 13.7166 28.5157L14.8195 34.4342C15.0683 34.7117 14.9872 35.4251 12.6725 36.0592C2.81642 37.9296 7.59281 29.5016 11.213 25.0537C10.4474 7.11874 22.8791 5.75199 25.2652 5.00587Z" fill="#71EBBE"/>
<path d="M13.7166 28.5157L14.8195 34.4342C15.0683 34.7117 14.9872 35.4251 12.6725 36.0592C2.81642 37.9296 7.59281 29.5016 11.213 25.0537M13.7166 28.5157L11.213 25.0537M13.7166 28.5157C15.3574 26.679 18.1131 24.2931 21.7052 22.1796M11.213 25.0537C10.4474 7.11874 22.8791 5.75199 25.2652 5.00587C38.6356 0.824929 50.3601 12.7755 46.5945 17.9542C43.4627 17.221 40.4386 17.0093 37.5693 17.1798M21.7052 22.1796C20.2327 21.3733 17.9335 19.3765 20.5163 17.8395C20.7789 17.6833 21.1222 17.4997 21.5307 17.2981M21.7052 22.1796C25.9698 19.6705 31.4132 17.5455 37.5693 17.1798M37.5693 17.1798C38.1569 14.5306 36.5086 13.6337 34.0127 13.6588M21.5307 17.2981C24.327 15.9183 30.1728 13.6974 34.0127 13.6588M21.5307 17.2981C22.6799 13.2926 26.7853 6.95694 34.0127 13.6588" stroke="#1B1C1E" stroke-linecap="round"/>
<path d="M29.1641 28.7498C29.1641 30.25 31.6641 30.7499 32.1641 28.7498C32.1641 26.5572 29.1641 26.7498 29.1641 28.7498Z" fill="#1B1C1E"/>
<path d="M40.1641 29.5572C39.9497 31.0573 42.8024 31.0572 43.1641 29.7503C43.6975 27.8226 40.4692 27.4216 40.1641 29.5572Z" fill="#1B1C1E"/>
<path d="M31.6641 36.0572C32.9974 37.5572 36.4641 39.8572 39.6641 37.0572M29.1641 28.7498C29.1641 30.25 31.6641 30.7499 32.1641 28.7498C32.1641 26.5572 29.1641 26.7498 29.1641 28.7498ZM40.1641 29.5572C39.9497 31.0573 42.8024 31.0572 43.1641 29.7503C43.6975 27.8226 40.4692 27.4216 40.1641 29.5572Z" stroke="#1B1C1E" stroke-linecap="round"/>
</svg>
