<svg width="48" height="47" viewBox="0 0 48 47" fill="none" xmlns="http://www.w3.org/2000/svg">
<path d="M13.4169 5.07499C9.01956 8.00458 9.8145 12.9161 10.7616 15.0056C6.92906 14.461 4.51683 16.4287 2.90315 21.5311C1.28947 26.6335 7.63789 30.7346 9.72834 31.0317C9.35702 33.6448 8.93618 36.6063 10.3812 38.9443C14.7851 44.9729 20.5444 42.0473 22.8735 39.8309C24.9652 41.7869 30.1683 45.0262 34.2473 42.3357C38.3263 39.6453 37.9658 34.5112 37.2757 32.2804C39.6064 32.1377 44.4509 30.5631 45.1837 25.4066C45.736 18.5184 40.5819 16.5182 37.9358 16.3791C39.3114 14.6196 40.9472 10.1956 36.4853 6.57585C30.908 2.05111 26.2824 5.83688 24.9649 7.6046C24.665 5.96249 18.9135 1.41299 13.4169 5.07499Z" fill="#FBFBFB"/>
<path d="M12.811 25.1774C9.19688 24.2739 7.54041 18.5264 7.16394 15.7656L21.4698 19.1539H24.1051L39.1639 15.7656C39.0385 18.2754 37.5828 23.6715 32.7639 25.1774C27.0416 26.6833 24.6071 23.0441 24.1051 21.0362H21.4698C21.4698 22.9186 17.3286 26.3068 12.811 25.1774Z" fill="#1B1C1E" stroke="#1B1C1E" stroke-linecap="round" stroke-linejoin="round"/>
<path d="M13.1874 23.672C11.3804 23.672 9.92469 20.1582 9.42273 18.4014L15.0698 19.5308C14.8188 20.1582 14.091 21.8649 13.1874 23.672Z" fill="#FBFBFB"/>
<path d="M25.9874 21.0367C25.6863 21.9402 27.1168 23.421 27.8698 24.0484L29.7521 20.2837L25.9874 21.0367Z" fill="#FBFBFB"/>
<path d="M13.1874 23.672C11.3804 23.672 9.92469 20.1582 9.42273 18.4014L15.0698 19.5308C14.8188 20.1582 14.091 21.8649 13.1874 23.672Z" stroke="#FBFBFB" stroke-linecap="round" stroke-linejoin="round"/>
<path d="M25.9874 21.0367C25.6863 21.9402 27.1168 23.421 27.8698 24.0484L29.7521 20.2837L25.9874 21.0367Z" stroke="#FBFBFB" stroke-linecap="round" stroke-linejoin="round"/>
<path d="M18.1639 32.7656C21.9973 33.099 29.9639 32.7656 31.1639 28.7656" stroke="#1B1C1E" stroke-linecap="round" stroke-linejoin="round"/>
</svg>
