<svg width="53" height="51" viewBox="0 0 53 51" fill="none" xmlns="http://www.w3.org/2000/svg">
<path d="M17.6017 5.7095C12.9149 8.14929 13.1771 13.1178 13.8941 15.297C10.1423 14.3435 7.53245 16.0404 5.37949 20.9397C3.22654 25.839 9.09717 30.599 11.1436 31.1191C10.4934 33.6771 9.75659 36.5762 10.9418 39.056C14.672 45.5232 20.7125 43.2338 23.2664 41.2807C25.1357 43.4503 29.9603 47.2303 34.3049 44.994C38.6495 42.7577 38.8432 37.6146 38.397 35.3226C40.7295 35.4313 45.7152 34.3868 46.9982 29.339C48.288 22.5501 43.3788 20.0073 40.763 19.5845C42.3199 17.9831 44.4218 13.7607 40.375 9.68211C35.3166 4.5839 30.3107 7.85035 28.8107 9.46615C28.6892 7.80132 23.4602 2.65977 17.6017 5.7095Z" fill="#FBFBFB" stroke="black" stroke-width="2"/>
<path d="M15.9396 24.7437C12.4436 23.4568 11.4147 17.5646 11.3373 14.7793L25.1959 19.6861L27.8159 19.9695L43.1518 18.2201C42.7571 20.7019 40.7297 25.9101 35.7769 26.8891C29.9258 27.771 27.8967 23.8911 27.6135 21.8409L24.9935 21.5576C24.7911 23.429 20.3096 26.3523 15.9396 24.7437Z" fill="#1B1C1E" stroke="#1B1C1E" stroke-width="2" stroke-linecap="round" stroke-linejoin="round"/>
<path d="M16.4758 23.2874C14.6793 23.0931 13.6098 19.4432 13.2997 17.6426L18.7926 19.3726C18.4756 19.9695 17.5684 21.588 16.4758 23.2874Z" fill="#FBFBFB"/>
<path d="M29.485 22.0437C29.0884 22.9096 30.3515 24.5356 31.0326 25.2404L33.3088 21.6999L29.485 22.0437Z" fill="#FBFBFB"/>
<path d="M16.4758 23.2874C14.6793 23.0931 13.6098 19.4432 13.2997 17.6426L18.7926 19.3726C18.4756 19.9695 17.5684 21.588 16.4758 23.2874Z" stroke="#FBFBFB" stroke-width="2" stroke-linecap="round" stroke-linejoin="round"/>
<path d="M29.485 22.0437C29.0884 22.9096 30.3515 24.5356 31.0326 25.2404L33.3088 21.6999L29.485 22.0437Z" stroke="#FBFBFB" stroke-width="2" stroke-linecap="round" stroke-linejoin="round"/>
<path d="M20.6121 31.0215C21.1121 32.3548 23.9121 34.4215 31.1121 32.0215" stroke="#1B1C1E" stroke-width="2" stroke-linecap="round"/>
</svg>
