<svg width="58" height="53" viewBox="0 0 58 53" fill="none" xmlns="http://www.w3.org/2000/svg">
<path d="M12.7974 13.8407C9.60056 18.0478 11.9587 22.4289 13.5373 24.0936C9.7375 24.8328 8.10183 27.4815 8.24635 32.831C8.39086 38.1805 15.7317 39.9789 17.8043 39.5757C18.3083 42.1664 18.8796 45.1026 21.01 46.8392C27.144 51.0951 31.6291 46.4462 33.1049 43.5898C35.7214 44.7538 41.698 46.1125 44.6722 42.2355C47.6464 38.3586 45.626 33.625 44.2441 31.7428C46.3998 30.8454 50.4625 27.7724 49.4679 22.66C47.7361 15.9702 42.2113 15.7664 39.6653 16.5007C40.3895 14.388 40.4879 9.6723 35.0872 7.71155C28.3365 5.26061 25.2041 10.3514 24.5374 12.4529C23.7168 10.9993 16.7933 8.58193 12.7974 13.8407Z" fill="#FBFBFB"/>
<path d="M50.2805 23.5523L47.3436 17.6706C46.9215 16.9397 46.4977 16.2458 46.0691 15.5882C40.733 7.40127 33.2309 4.104 23.7315 5.95209C16.3921 7.37995 10.8162 14.5428 9.24322 21.3189C8.47206 24.641 8.19652 27.8883 8.21414 30.3027C6.31361 30.6724 3.04986 27.7232 3.41026 24.9643C3.77067 22.2053 6.78259 20.1853 9.24322 21.3189C10.8162 14.5428 16.3921 7.37995 23.7315 5.95209C33.2309 4.104 40.733 7.40127 46.0691 15.5882C47.5589 14.9996 50.9013 14.3971 52.3524 16.6961C53.8035 18.995 51.5757 22.2248 50.2805 23.5523Z" fill="#71EBBE"/>
<path d="M46.0691 15.5882C40.733 7.40127 33.2309 4.104 23.7315 5.95209C16.3921 7.37995 10.8162 14.5428 9.24322 21.3189M46.0691 15.5882C46.4977 16.2458 46.9215 16.9397 47.3436 17.6706L50.2805 23.5524C51.5757 22.2248 53.8035 18.995 52.3524 16.6961C50.9013 14.3971 47.5589 14.9996 46.0691 15.5882ZM9.24322 21.3189C8.47206 24.641 8.19652 27.8883 8.21414 30.3027C6.31361 30.6724 3.04986 27.7232 3.41026 24.9643C3.77067 22.2053 6.78259 20.1853 9.24322 21.3189Z" stroke="#71EBBE" stroke-width="2" stroke-linecap="round" stroke-linejoin="round"/>
<path d="M19.582 27.1164C20.7847 28.0774 23.7121 29.1809 25.7998 25.9067M30.9157 24.4507C32.6605 25.127 34.6447 25.6232 36.1221 22.8978M25.2409 33.9798C27.5823 34.9583 32.2711 35.7887 35.3566 31.7467" stroke="black" stroke-linecap="round" stroke-linejoin="round"/>
</svg>
