<svg width="48" height="47" viewBox="0 0 48 47" fill="none" xmlns="http://www.w3.org/2000/svg">
<path d="M13.592 4.97533C9.16712 7.86312 9.91548 12.7819 10.8428 14.8803C7.01552 14.2994 4.58475 16.2442 2.92279 21.3311C1.26083 26.4179 7.5701 30.5791 9.65764 30.8959C9.26157 33.5054 8.81269 36.4627 10.2355 38.8143C14.5821 44.8844 20.3688 42.0135 22.7189 39.8193C24.7919 41.795 29.9641 45.0835 34.0684 42.4318C38.1727 39.7801 37.8609 34.6428 37.1919 32.4056C39.5239 32.285 44.3831 30.7564 45.1647 25.6071C45.7823 18.7244 40.6474 16.6755 38.0027 16.5113C39.3949 14.7649 41.0725 10.3567 36.6452 6.69475C31.111 2.11735 26.4497 5.85911 25.1155 7.61427C24.8312 5.96939 19.1231 1.3656 13.592 4.97533Z" fill="#71EBBE"/>
<path d="M18.5061 29.5938C20.5061 31.26 25.5061 33.8926 29.5061 31.0928" stroke="#1B1C1E" stroke-linecap="round"/>
<path d="M6 16.6014L13.5 19.6013M13.5 19.6013C13.1667 21.4346 13.3519 24.9017 16.5 25.6013C21 26.6013 21.983 22.0934 22.1084 21.1013M13.5 19.6013C14.5 16.1013 18.1675 14.8522 20.5 16.6014C22.5 18.1012 22.2773 19.765 22.1084 21.1013M22.1084 21.1013C22.1608 20.6868 22.056 21.5158 22.1084 21.1013ZM22.1084 21.1013L28.5 21.6013M28.5 21.6013C29.1667 19.4346 31.5 16.6014 34.5 17.6013C37.6871 18.6636 38.5 22.1016 38 23.6016M28.5 21.6013C28.5 22.768 28.3 25.9016 31.5 27.1016C34.7 28.3015 37.5 25.6013 38 23.6016M38 23.6016L43.5 19.1013" stroke="#222222" stroke-linecap="round"/>
<path d="M32.0062 21.5928C31.0062 23.0928 33.3295 24.8578 34.5062 23.0928C35.5062 21.5928 33.0062 20.0928 32.0062 21.5928Z" fill="#1B1C1E"/>
<path d="M18.0062 19.0928C16.284 19.0928 15.5062 22.0928 18.0062 22.0928C20.2266 22.0928 19.7284 19.0928 18.0062 19.0928Z" fill="#1B1C1E"/>
<path d="M12.7128 27.4367C12.9284 25.952 15.8784 26.5129 15.6816 27.8679C15.4661 29.352 12.4972 28.9208 12.7128 27.4367Z" fill="#F08E98"/>
<path d="M32.5051 30.3113C32.7208 28.8265 36.2258 29.0444 35.9688 30.8144C35.7532 32.2984 32.2895 31.7962 32.5051 30.3113Z" fill="#F08E98"/>
</svg>
