<svg width="56" height="55" viewBox="0 0 56 55" fill="none" xmlns="http://www.w3.org/2000/svg">
<path d="M14.281 11.2747C10.4811 14.9462 12.1449 19.6352 13.4518 21.5207C9.5837 21.673 7.56394 24.0419 6.89253 29.351C6.22112 34.6602 13.2027 37.555 15.3125 37.4719C15.4163 40.1092 15.534 43.0981 17.3753 45.1387C22.79 50.2787 27.9305 46.3666 29.8239 43.7681C32.2327 45.3168 37.9329 47.5694 41.4625 44.1903C44.9922 40.8112 43.7158 35.8253 42.6365 33.7547C44.9036 33.1958 49.3868 30.777 49.1819 25.5728C48.4885 18.6973 43.0591 17.655 40.431 17.9932C41.4684 16.0153 42.2833 11.3696 37.2441 8.60964C30.945 5.15974 27.0743 9.71445 26.0955 11.69C25.5057 10.1284 19.0308 6.68541 14.281 11.2747Z" fill="#71EBBE"/>
<path d="M18.0983 29.996C14.3807 29.756 11.7193 24.3993 10.8533 21.751L25.535 22.5158L28.1275 22.0426L42.3333 16.0059C42.6605 18.4975 42.1972 24.0672 37.727 26.4138C32.368 28.9225 29.3197 25.7795 28.4654 23.8944L25.873 24.3675C26.2109 26.2193 22.7453 30.296 18.0983 29.996Z" fill="#1B1C1E" stroke="#1B1C1E" stroke-linecap="round" stroke-linejoin="round"/>
<path d="M18.1984 28.4475C16.4207 28.772 14.3578 25.5767 13.5486 23.9385L19.3067 24.0357C19.1724 24.698 18.7628 26.5076 18.1984 28.4475Z" fill="#FBFBFB"/>
<path d="M30.3173 23.557C30.1832 24.4999 31.8564 25.6998 32.7097 26.1819L33.8856 22.1404L30.3173 23.557Z" fill="#FBFBFB"/>
<path d="M18.1984 28.4475C16.4207 28.772 14.3578 25.5767 13.5486 23.9385L19.3067 24.0357C19.1724 24.698 18.7628 26.5076 18.1984 28.4475Z" stroke="#FBFBFB" stroke-linecap="round" stroke-linejoin="round"/>
<path d="M30.3173 23.557C30.1832 24.4999 31.8564 25.6998 32.7097 26.1819L33.8856 22.1404L30.3173 23.557Z" stroke="#FBFBFB" stroke-linecap="round" stroke-linejoin="round"/>
<path d="M27.7676 36.4535C28.8698 35.0664 31.3966 32.945 32.6863 35.5559" stroke="black" stroke-linecap="round"/>
</svg>
