<svg width="30" height="30" viewBox="0 0 30 30" fill="none" xmlns="http://www.w3.org/2000/svg">
<path d="M27.0126 23.5318C28.92 21.8319 30 19.566 30 17.2146C30 14.7156 28.8302 12.3786 26.7059 10.6335C24.6384 8.93565 21.9018 8.00049 18.9999 8.00049C16.0979 8.00049 13.3613 8.93565 11.2941 10.6336C9.16986 12.3786 8 14.7156 8 17.2146C8 19.7135 9.16986 22.0506 11.2941 23.7957C13.3613 25.4937 16.0979 26.4288 18.9999 26.4288C19.3865 26.4288 19.7756 26.4117 20.1614 26.3778L20.8205 26.9491C23.0912 28.9167 25.9951 29.9999 28.9997 30H29.9997V27.8715L29.7069 27.5787C28.5515 26.4199 27.636 25.0447 27.0126 23.5318ZM22.1304 25.4376L20.8078 24.2913L20.3668 24.3454C19.9133 24.4008 19.4568 24.4287 18.9999 24.4287C14.0374 24.4287 9.99998 21.1924 9.99998 17.2146C9.99998 13.2367 14.0374 10.0004 18.9999 10.0004C23.9623 10.0004 27.9998 13.2367 27.9998 17.2146C27.9998 19.1964 27.011 21.0466 25.2157 22.4243L24.6397 22.8663L24.9055 23.6184C25.4501 25.1546 26.2506 26.5877 27.2731 27.8569C25.3689 27.5391 23.5893 26.7019 22.1304 25.4376Z" fill="#1b1c1e"/>
<path d="M2.76153 18.8418C3.6976 17.6569 4.43255 16.3262 4.937 14.903L5.20075 14.1546L4.62532 13.7129C2.93234 12.4138 1.99998 10.6703 1.99998 8.80336C1.99998 5.05195 5.81299 1.99995 10.4999 1.99995C13.9478 1.99995 16.9227 3.65179 18.2546 6.01861C18.5019 6.00661 18.7503 5.99986 18.9998 5.99986C19.5009 5.99986 19.9974 6.02418 20.4894 6.0728C19.9747 4.73939 19.0808 3.52217 17.8519 2.51282C15.8793 0.892417 13.2686 0 10.4999 0C7.73115 0 5.12044 0.892417 3.14771 2.51282C1.11786 4.18022 0 6.41423 0 8.80336C0 11.0408 1.02199 13.1967 2.82809 14.8184C2.23868 16.2368 1.37746 17.5262 0.292934 18.6139L0 18.9068V20.9995H0.999988C2.84916 20.9993 4.6729 20.5687 6.32686 19.7417C6.1455 19.0543 6.03923 18.3493 6.00993 17.639C5.00605 18.2273 3.90649 18.6345 2.76153 18.8418Z" fill="#1b1c1e"/>
</svg>
