<svg width="168" height="24" viewBox="0 0 168 24" fill="none" xmlns="http://www.w3.org/2000/svg">
<path d="M17.6 0.32C22.688 0.32 26.176 3.552 26.176 8.544C26.176 13.536 22.688 16.736 17.6 16.736H5.76V22.72H0V0.32H17.6ZM16 11.904C17.728 11.904 20.416 11.904 20.416 8.544C20.416 5.152 17.728 5.152 16 5.152H5.76V11.904H16ZM41.8225 23.04C31.9665 23.04 27.7425 18.944 27.7425 11.488C27.7425 4.064 31.9665 0 41.8225 0C51.6465 0 55.9025 4.096 55.9025 11.488C55.9025 18.912 51.6465 23.04 41.8225 23.04ZM41.8225 18.208C47.8065 18.208 50.1425 16.064 50.1425 11.488C50.1425 6.944 47.8385 4.832 41.8225 4.832C35.8065 4.832 33.5025 6.912 33.5025 11.488C33.5025 16.096 35.8385 18.208 41.8225 18.208ZM75.6 0.32C80.688 0.32 84.176 3.552 84.176 8.544C84.176 13.536 80.688 16.736 75.6 16.736H63.76V22.72H58V0.32H75.6ZM74 11.904C75.728 11.904 78.416 11.904 78.416 8.544C78.416 5.152 75.728 5.152 74 5.152H63.76V11.904H74ZM85.586 13.312C85.586 6.368 90.834 3.552 98.642 3.552C105.682 3.552 110.642 5.856 111.538 11.392H105.938C105.202 8.96 102.61 8.128 98.642 8.128C93.938 8.128 91.058 9.376 91.058 13.312C91.058 17.216 93.938 18.464 98.642 18.464C102.61 18.464 105.202 17.632 105.938 15.2H111.538C110.642 20.736 105.682 23.04 98.642 23.04C90.834 23.04 85.586 20.224 85.586 13.312ZM126.174 23.04C118.366 23.04 113.117 20.224 113.117 13.312C113.117 6.368 118.366 3.552 126.174 3.552C133.95 3.552 139.23 6.368 139.23 13.312C139.23 20.224 133.95 23.04 126.174 23.04ZM126.174 18.464C131.23 18.464 133.726 17.216 133.726 13.312C133.726 9.376 131.23 8.128 126.174 8.128C121.086 8.128 118.59 9.376 118.59 13.312C118.59 17.216 121.086 18.464 126.174 18.464ZM157.761 3.552C162.785 3.552 167.489 5.344 167.553 12.288L167.489 22.72H161.985V14.368C161.985 10.368 160.641 8.288 156.129 8.288C152.449 8.288 148.481 10.176 146.785 12.16V22.72H141.313V3.872H146.785V7.168C149.473 5.056 153.185 3.552 157.761 3.552Z" fill="#71EBBE"/>
</svg>
