<svg width="109" height="35" viewBox="0 0 109 35" fill="none" xmlns="http://www.w3.org/2000/svg">
<path d="M19.02 8.19H12.66V27H6.81V8.19H0.45V3.45H19.02V8.19ZM25.6376 9.03V11.61C26.3376 10.65 27.1776 9.91 28.1576 9.39C29.1376 8.85 30.2076 8.58 31.3676 8.58C31.7876 8.58 32.1976 8.61 32.5976 8.67C32.9976 8.73 33.3076 8.81 33.5276 8.91L32.7776 14.85C32.0176 14.59 31.2176 14.46 30.3776 14.46C28.9576 14.46 27.8076 14.81 26.9276 15.51C26.0676 16.19 25.6376 17.22 25.6376 18.6V27H19.8176V9.03H25.6376ZM42.8735 27H36.8735V11.79H42.8735V27ZM39.1835 0.809999C39.3035 0.949999 39.4235 1.14 39.5435 1.38C39.6835 1.62 39.7835 1.83 39.8435 2.01C39.9035 1.81 40.0035 1.59 40.1435 1.35C40.2835 1.09 40.4035 0.909999 40.5035 0.809999C40.7835 0.549999 41.1135 0.419999 41.4935 0.419999C41.8535 0.419999 42.1635 0.539999 42.4235 0.78C42.6835 1.04 42.8135 1.37 42.8135 1.77C42.8135 1.95 42.7835 2.12 42.7235 2.28C42.8835 2.22 43.0535 2.19 43.2335 2.19C43.6335 2.19 43.9635 2.32 44.2235 2.58C44.4635 2.84 44.5835 3.14 44.5835 3.48C44.5835 3.86 44.4535 4.19 44.1935 4.47C43.9935 4.67 43.8235 4.82 43.6835 4.92C43.5635 5.02 43.3835 5.1 43.1435 5.16C43.3835 5.24 43.5735 5.33 43.7135 5.43C43.8535 5.53 44.0135 5.67 44.1935 5.85C44.4535 6.11 44.5835 6.43 44.5835 6.81C44.5835 7.15 44.4635 7.46 44.2235 7.74C43.9235 8 43.6035 8.13 43.2635 8.13C43.1435 8.13 42.9635 8.09 42.7235 8.01C42.7835 8.19 42.8135 8.36 42.8135 8.52C42.8135 8.92 42.6835 9.25 42.4235 9.51C42.1835 9.75 41.8735 9.87 41.4935 9.87C41.0935 9.87 40.7635 9.74 40.5035 9.48C40.1635 9.08 39.9435 8.69 39.8435 8.31C39.7235 8.73 39.5235 9.1 39.2435 9.42C38.9635 9.72 38.6235 9.87 38.2235 9.87C37.8835 9.87 37.5735 9.75 37.2935 9.51C37.0135 9.23 36.8735 8.91 36.8735 8.55C36.8735 8.43 36.9135 8.25 36.9935 8.01C36.7535 8.09 36.5735 8.13 36.4535 8.13C36.0735 8.13 35.7535 8 35.4935 7.74C35.2535 7.46 35.1335 7.15 35.1335 6.81C35.1335 6.43 35.2635 6.11 35.5235 5.85C35.7235 5.65 35.8935 5.5 36.0335 5.4C36.1735 5.3 36.3635 5.22 36.6035 5.16C36.3635 5.08 36.1635 4.99 36.0035 4.89C35.8635 4.79 35.7035 4.65 35.5235 4.47C35.2635 4.19 35.1335 3.86 35.1335 3.48C35.1335 3.14 35.2535 2.84 35.4935 2.58C35.7535 2.32 36.0835 2.19 36.4835 2.19C36.6835 2.19 36.8535 2.22 36.9935 2.28C36.9135 2.04 36.8735 1.86 36.8735 1.74C36.8735 1.38 37.0135 1.06 37.2935 0.78C37.5735 0.539999 37.8735 0.419999 38.1935 0.419999C38.5535 0.419999 38.8835 0.549999 39.1835 0.809999ZM54.2412 11.04C54.8612 10.24 55.6612 9.66 56.6412 9.3C57.6412 8.92 58.6912 8.73 59.7912 8.73C62.3512 8.73 64.3312 9.56 65.7312 11.22C67.1512 12.88 67.8612 15.11 67.8612 17.91C67.8612 19.83 67.5012 21.49 66.7812 22.89C66.0812 24.29 65.1212 25.37 63.9012 26.13C62.6812 26.87 61.3012 27.24 59.7612 27.24C58.9012 27.24 58.0012 27.13 57.0612 26.91C56.1412 26.69 55.4112 26.37 54.8712 25.95L56.0712 21.63C56.3312 21.83 56.7112 22.01 57.2112 22.17C57.7112 22.31 58.1612 22.38 58.5612 22.38H58.6512C59.8112 22.34 60.6712 21.93 61.2312 21.15C61.7912 20.35 62.0712 19.3 62.0712 18C62.0712 16.66 61.7512 15.58 61.1112 14.76C60.4712 13.92 59.5212 13.5 58.2612 13.5C57.1812 13.5 56.2712 13.88 55.5312 14.64C54.7912 15.38 54.3612 16.3 54.2412 17.4V34.47H48.4512V9.06H54.2412V11.04ZM80.8441 27.15C78.8641 27.15 77.1441 26.75 75.6841 25.95C74.2241 25.13 73.1041 23.99 72.3241 22.53C71.5641 21.07 71.1841 19.38 71.1841 17.46V3.45H77.0041V17.79C77.0041 19.27 77.3441 20.38 78.0241 21.12C78.7041 21.84 79.6441 22.2 80.8441 22.2C82.0441 22.2 82.9841 21.84 83.6641 21.12C84.3441 20.38 84.6841 19.27 84.6841 17.79V3.45H90.5041V17.46C90.5041 19.38 90.1141 21.07 89.3341 22.53C88.5741 23.99 87.4641 25.13 86.0041 25.95C84.5441 26.75 82.8241 27.15 80.8441 27.15ZM107.605 14.31C106.925 14.01 106.025 13.76 104.905 13.56C103.805 13.36 102.835 13.26 101.995 13.26C100.555 13.26 99.8353 13.63 99.8353 14.37C99.8353 14.69 99.9453 14.93 100.165 15.09C100.405 15.23 100.785 15.36 101.305 15.48C103.365 15.92 104.905 16.35 105.925 16.77C106.885 17.17 107.625 17.77 108.145 18.57C108.665 19.35 108.925 20.28 108.925 21.36C108.925 21.92 108.855 22.48 108.715 23.04C108.035 25.8 105.695 27.18 101.695 27.18C98.5953 27.18 95.7553 26.61 93.1753 25.47L94.2553 20.67C94.8953 21.09 95.9553 21.46 97.4353 21.78C98.9353 22.1 100.165 22.26 101.125 22.26C102.385 22.26 103.055 21.98 103.135 21.42C103.195 21.04 103.095 20.75 102.835 20.55C102.575 20.33 102.145 20.13 101.545 19.95C100.745 19.73 100.235 19.6 100.015 19.56C98.6153 19.22 97.6453 18.94 97.1053 18.72C94.9653 17.84 93.9453 16.19 94.0453 13.77C94.1053 11.83 94.8853 10.47 96.3853 9.69C97.8853 8.91 99.7053 8.52 101.845 8.52C103.045 8.52 104.235 8.63 105.415 8.85C106.615 9.07 107.665 9.39 108.565 9.81L107.605 14.31Z" fill="#06B796"/>
</svg>
