<svg width="219" height="38" viewBox="0 0 219 38" fill="none" xmlns="http://www.w3.org/2000/svg">
<path d="M34.976 6.6C40.064 6.6 43.552 9.832 43.552 14.824C43.552 19.816 40.064 23.016 34.976 23.016H23.136V29H17.376V6.6H34.976ZM33.376 18.184C35.104 18.184 37.792 18.184 37.792 14.824C37.792 11.432 35.104 11.432 33.376 11.432H23.136V18.184H33.376ZM59.1985 29.32C49.3425 29.32 45.1185 25.224 45.1185 17.768C45.1185 10.344 49.3425 6.28 59.1985 6.28C69.0225 6.28 73.2785 10.376 73.2785 17.768C73.2785 25.192 69.0225 29.32 59.1985 29.32ZM59.1985 24.488C65.1825 24.488 67.5185 22.344 67.5185 17.768C67.5185 13.224 65.2145 11.112 59.1985 11.112C53.1825 11.112 50.8785 13.192 50.8785 17.768C50.8785 22.376 53.2145 24.488 59.1985 24.488ZM92.976 6.6C98.064 6.6 101.552 9.832 101.552 14.824C101.552 19.816 98.064 23.016 92.976 23.016H81.136V29H75.376V6.6H92.976ZM91.376 18.184C93.104 18.184 95.792 18.184 95.792 14.824C95.792 11.432 93.104 11.432 91.376 11.432H81.136V18.184H91.376ZM102.962 19.592C102.962 12.648 108.21 9.832 116.018 9.832C123.058 9.832 128.018 12.136 128.914 17.672H123.314C122.578 15.24 119.986 14.408 116.018 14.408C111.314 14.408 108.434 15.656 108.434 19.592C108.434 23.496 111.314 24.744 116.018 24.744C119.986 24.744 122.578 23.912 123.314 21.48H128.914C128.018 27.016 123.058 29.32 116.018 29.32C108.21 29.32 102.962 26.504 102.962 19.592ZM143.55 29.32C135.742 29.32 130.493 26.504 130.493 19.592C130.493 12.648 135.742 9.832 143.55 9.832C151.326 9.832 156.606 12.648 156.606 19.592C156.606 26.504 151.326 29.32 143.55 29.32ZM143.55 24.744C148.606 24.744 151.102 23.496 151.102 19.592C151.102 15.656 148.606 14.408 143.55 14.408C138.462 14.408 135.966 15.656 135.966 19.592C135.966 23.496 138.462 24.744 143.55 24.744ZM175.137 9.832C180.161 9.832 184.865 11.624 184.929 18.568L184.865 29H179.361V20.648C179.361 16.648 178.017 14.568 173.505 14.568C169.825 14.568 165.857 16.456 164.161 18.44V29H158.689V10.152H164.161V13.448C166.849 11.336 170.561 9.832 175.137 9.832Z" fill="#71EBBE"/>
<path d="M198.094 29.3125C197.583 29.3125 197.109 29.1875 196.672 28.9375C196.245 28.6771 195.901 28.3281 195.641 27.8906C195.391 27.4531 195.271 26.9792 195.281 26.4688C195.271 25.9688 195.391 25.5052 195.641 25.0781C195.901 24.651 196.245 24.3125 196.672 24.0625C197.109 23.8125 197.583 23.6875 198.094 23.6875C198.583 23.6875 199.047 23.8125 199.484 24.0625C199.922 24.3125 200.271 24.651 200.531 25.0781C200.802 25.5052 200.938 25.9688 200.938 26.4688C200.938 26.9792 200.802 27.4531 200.531 27.8906C200.271 28.3281 199.922 28.6771 199.484 28.9375C199.047 29.1875 198.583 29.3125 198.094 29.3125Z" fill="#C2C2C2"/>
</svg>
