<svg width="19" height="18" viewBox="0 0 19 18" fill="none" xmlns="http://www.w3.org/2000/svg">
<path d="M4.82949 2.28017C3.34507 3.69175 3.90173 5.59739 4.36561 6.37377C2.90767 6.37377 2.11247 7.29135 1.78112 9.40873C1.44978 11.5261 4.03427 12.7965 4.82949 12.7965C4.82949 13.8552 4.82949 15.0551 5.49219 15.902C7.45375 18.0476 9.44624 16.5608 10.1973 15.5491C11.0809 16.2079 13.1926 17.2007 14.571 15.902C15.9494 14.6034 15.543 12.5848 15.1675 11.7378C16.029 11.5496 17.752 10.6509 17.752 8.56177C17.5929 5.79506 15.5651 5.2916 14.571 5.3857C14.9907 4.60932 15.3663 2.76011 13.5107 1.57437C11.1913 0.0922089 9.66713 1.85669 9.26952 2.63306C9.07071 1.99785 6.68502 0.515684 4.82949 2.28017Z" fill="#1B1C1E" stroke="#1B1C1E" stroke-width="2"/>
</svg>
