<svg width="140" height="107" viewBox="0 0 140 107" fill="none" xmlns="http://www.w3.org/2000/svg">
<path d="M115.709 67.3454C112.919 69.8368 113.965 73.2003 114.837 74.5705C112.096 74.5705 110.602 76.1901 109.979 79.9272C109.356 83.6643 114.214 85.9066 115.709 85.9066C115.709 87.7752 115.709 89.8929 116.955 91.3877C120.642 95.1747 124.387 92.5504 125.799 90.7649C127.46 91.9275 131.43 93.6798 134.021 91.3877C136.612 89.0956 135.848 85.5329 135.142 84.038C136.761 83.7058 140 82.1196 140 78.4323C139.701 73.5491 135.889 72.6605 134.021 72.8266C134.81 71.4563 135.516 68.1925 132.028 66.0997C127.668 63.4837 124.803 66.598 124.055 67.9683C123.681 66.8471 119.197 64.2311 115.709 67.3454Z" fill="white"/>
<path d="M121.135 82.2757C122.256 83.3138 125.321 84.7671 128.61 82.2757M122.132 75.5488V77.542M128.61 75.5488V77.542" stroke="black" stroke-width="2" stroke-linecap="round" stroke-linejoin="round"/>
<path d="M25.6874 26.7657C19.055 35.4941 23.9474 44.5835 27.2226 48.0372C19.3391 49.571 15.9456 55.0662 16.2454 66.1648C16.5452 77.2634 31.7752 80.9945 36.0752 80.1579C37.121 85.5329 38.3061 91.6246 42.7261 95.2275C55.4522 104.057 64.7575 94.4122 67.8193 88.4859C73.2478 90.9008 85.6474 93.7198 91.818 85.6763C97.9886 77.6328 93.7969 67.812 90.9298 63.9071C95.4022 62.0452 103.831 55.6698 101.768 45.063C98.1747 31.1836 86.7123 30.7608 81.4302 32.2844C82.9328 27.9011 83.1367 18.1175 71.9321 14.0495C57.9263 8.96455 51.4276 19.5264 50.0444 23.8864C48.342 20.8705 33.9778 15.8553 25.6874 26.7657Z" fill="#FBFBFB" stroke="#FBFBFB" stroke-width="8"/>
<path d="M103.454 46.9145L97.3604 34.7116C96.4847 33.1953 95.6055 31.7557 94.7162 30.3914C83.6456 13.4059 68.0809 6.56511 48.3724 10.3993C33.1454 13.3617 21.5772 28.2224 18.3138 42.2808C16.7139 49.1731 16.1422 55.9103 16.1787 60.9194C12.2357 61.6865 5.46443 55.5678 6.21215 49.8439C6.95988 44.1199 13.2087 39.929 18.3138 42.2808C21.5772 28.2224 33.1454 13.3617 48.3724 10.3993C68.0809 6.56511 83.6456 13.4059 94.7162 30.3914C97.8071 29.1702 104.742 27.9202 107.752 32.6898C110.763 37.4595 106.141 44.1603 103.454 46.9145Z" fill="#71EBBE"/>
<path d="M94.7162 30.3914C83.6456 13.4059 68.0809 6.56511 48.3724 10.3993C33.1454 13.3617 21.5772 28.2224 18.3138 42.2808M94.7162 30.3914C95.6055 31.7557 96.4847 33.1953 97.3604 34.7116L103.454 46.9145C106.141 44.1603 110.763 37.4595 107.752 32.6898C104.742 27.9202 97.8071 29.1702 94.7162 30.3914ZM18.3138 42.2808C16.7139 49.1731 16.1422 55.9103 16.1787 60.9194C12.2357 61.6865 5.46443 55.5678 6.21215 49.8439C6.95988 44.1199 13.2087 39.929 18.3138 42.2808Z" stroke="#71EBBE" stroke-width="4" stroke-linecap="round" stroke-linejoin="round"/>
<path d="M39.7636 54.3087C42.259 56.3025 48.3325 58.5919 52.6637 51.7989M63.2776 48.7782C66.8977 50.1814 71.0142 51.2107 74.0795 45.5565M51.5042 68.5481C56.362 70.5782 66.0898 72.3012 72.4913 63.9153" stroke="black" stroke-width="4" stroke-linecap="round" stroke-linejoin="round"/>
</svg>
