<svg width="296" height="52" viewBox="0 0 296 52" fill="none" xmlns="http://www.w3.org/2000/svg">
<g clip-path="url(#clip0_108_1481)">
<path d="M296.003 47.0072H112.729V5.04479H296.003V47.0072Z" fill="#0033A0"/>
<path d="M126.964 11.867L126.934 12.1074C126.262 10.034 125.237 8.04623 123.702 6.28572C118.792 0.650105 110.992 -0.000411987 105.553 -0.000411987C96.9536 -0.000411987 90.5502 2.08289 86.0196 6.46523C85.7375 6.01575 85.4226 5.58751 85.0773 5.18396C81.2836 0.831261 75.1418 0.831261 73.1233 0.831261L-0.000488281 0.827969L7.61343 12.7481L2.07934 51.1714L67.879 51.1697C73.9198 51.1697 78.606 49.1424 81.7076 45.3414C81.7887 45.4402 81.8533 45.5506 81.9377 45.6477C86.8972 51.341 94.5707 51.9998 99.9111 51.9998C112.233 51.9998 120.242 47.3951 124.51 37.69C127.692 32.1565 127.254 17.3774 126.964 11.867Z" fill="#0033A0"/>
<path d="M47.3106 7.27443H36.9512C29.6138 16.9432 23.4455 23.2821 21.1587 24.957C23.0348 25.8018 27.4413 32.3169 32.4537 44.7261H42.9407C37.9762 32.3169 33.5284 25.6997 32.0828 24.4744C33.9755 22.9066 39.6537 16.9432 47.3106 7.27443Z" fill="white"/>
<path d="M11.451 7.27443C12.486 8.98883 14.6122 9.32973 14.2578 12.0833L9.55664 44.7261H18.2436L23.6551 7.27443H11.451Z" fill="white"/>
<path d="M81.2341 16.2459C82.0787 10.3979 80.6397 7.27869 73.1235 7.27869H48.2648C49.3213 8.99968 51.4541 9.33235 51.0898 12.0859L46.3721 44.7238H67.8792C73.9895 44.7238 78.1955 42.1513 79.2835 34.6202C80.1214 28.7704 78.7569 25.0205 75.2596 25.0205C78.4986 25.0205 80.4774 21.4682 81.2341 16.2459ZM70.0203 33.2335C69.6179 36.1353 68.515 37.3622 66.667 37.3622H56.1337L57.3773 28.7704H67.6987C69.6394 28.7704 70.469 30.1637 70.0203 33.2335ZM71.6033 18.1926C71.2307 20.7666 70.3365 21.7333 68.6541 21.7333H58.3891L59.4158 14.6336H69.6907C71.3467 14.6336 71.9643 15.6152 71.6033 18.1926Z" fill="white"/>
<path d="M121.09 25.6783C118.868 41.0947 111.969 45.5544 99.9109 45.5544C87.8044 45.5544 82.2339 41.0947 84.4661 25.6783C86.6602 10.4628 93.4611 6.44603 105.553 6.44603C117.616 6.44603 123.287 10.4628 121.09 25.6783ZM111.794 25.7804C113.272 15.5747 112.027 14.3823 104.417 14.3823C96.7928 14.3823 95.2263 15.5747 93.7442 25.7804C92.2489 36.1557 93.4362 37.6577 101.039 37.6577C108.677 37.6577 110.29 36.1557 111.794 25.7804Z" fill="white"/>
<path d="M131.652 40.5786V11.4783H139.594V34.2134H151.424V40.5786H131.652Z" fill="white"/>
<path d="M154.622 40.5786V11.4783H175.709V17.8435H162.564V22.845H174.622V29.2119H162.564V34.2134H175.651V40.5786H154.622Z" fill="white"/>
<path d="M256.791 11.4784H264.733V30.1211C264.733 32.3378 264.203 34.2531 263.142 35.8687C262.079 37.4843 260.602 38.7293 258.704 39.6055C256.81 40.4816 254.611 40.9197 252.103 40.9197C249.581 40.9197 247.371 40.4816 245.476 39.6055C243.58 38.7293 242.107 37.4843 241.055 35.8687C240.002 34.2531 239.477 32.3378 239.477 30.1211V11.4784H247.419V29.4393C247.419 30.3385 247.619 31.1422 248.02 31.8487C248.409 32.5432 248.985 33.1163 249.682 33.5038C250.424 33.9088 251.258 34.1143 252.103 34.1C253.018 34.1 253.829 33.9007 254.534 33.5038C255.229 33.1146 255.802 32.5418 256.19 31.8487C256.591 31.1422 256.791 30.3385 256.791 29.4393V11.4784Z" fill="white"/>
<path d="M268.506 40.5786V11.4783H289.593V17.8435H276.448V22.845H288.507V29.2119H276.448V34.2134H289.535V40.5786H268.506Z" fill="white"/>
<path d="M187.42 11.4784L177.763 40.5787H186.334L192.734 19.4921H192.962L195.878 29.0984H190.777L192.57 35.009H197.672L199.363 40.5787H207.935L198.278 11.4784H187.42Z" fill="white"/>
<path d="M215.081 39.0178C217.221 40.215 219.708 40.8129 222.539 40.8129C225.078 40.8129 227.33 40.3155 229.296 39.3224C231.223 38.3634 232.831 36.8714 233.927 35.0257C235.05 33.1549 235.611 30.902 235.611 28.2637V24.2502H220.244L223.642 29.8463H227.987C227.966 30.6533 227.774 31.3614 227.4 31.9658C227.001 32.6065 226.403 33.1022 225.601 33.4497C224.801 33.7988 223.8 33.9734 222.597 33.9734C221.233 33.9734 220.092 33.6522 219.173 33.0116C218.254 32.371 217.563 31.4487 217.098 30.2432C216.634 29.036 216.403 27.5851 216.403 25.8905C216.403 24.214 216.646 22.7812 217.135 21.5938C217.621 20.4064 218.332 19.4973 219.266 18.8666C220.198 18.2358 221.327 17.9196 222.654 17.9196C223.27 17.9196 223.834 17.9888 224.351 18.1255C224.868 18.2622 225.323 18.4647 225.716 18.7332C226.512 19.273 227.073 20.0935 227.285 21.0289H235.27C235.132 19.6214 234.696 18.2588 233.992 17.0303C233.285 15.809 232.347 14.7362 231.228 13.8716C230.047 12.9601 228.715 12.2617 227.292 11.8081C225.738 11.3123 224.115 11.0666 222.483 11.0801C220.6 11.0661 218.731 11.3995 216.971 12.0633C215.274 12.7055 213.73 13.692 212.438 14.9602C211.132 16.2365 210.11 17.7977 209.377 19.6439C208.643 21.49 208.275 23.6096 208.275 26.0025C208.275 29.0558 208.875 31.6892 210.074 33.9026C211.271 36.116 212.94 37.8221 215.081 39.0178Z" fill="white"/>
</g>
<defs>
<clipPath id="clip0_108_1481">
<rect width="296" height="52" fill="white"/>
</clipPath>
</defs>
</svg>
