<svg width="24" height="24" viewBox="0 0 24 24" fill="none" xmlns="http://www.w3.org/2000/svg">
<rect width="24" height="24" rx="12" fill="#71EBBE"/>
<g clip-path="url(#clip0_375_1636)">
<path d="M17.5186 11.1454L10.4486 6.91038C10.2974 6.82306 10.126 6.77686 9.95137 6.77637C9.77676 6.77588 9.60506 6.82112 9.45337 6.90759C9.30167 6.99406 9.17525 7.11874 9.0867 7.26923C8.99815 7.41972 8.95055 7.59078 8.94863 7.76538V16.2354C8.95055 16.41 8.99815 16.581 9.0867 16.7315C9.17525 16.882 9.30167 17.0067 9.45337 17.0932C9.60506 17.1796 9.77676 17.2249 9.95137 17.2244C10.126 17.2239 10.2974 17.1777 10.4486 17.0904L17.5186 12.8554C17.6656 12.7662 17.7871 12.6407 17.8714 12.491C17.9557 12.3412 18 12.1722 18 12.0004C18 11.8285 17.9557 11.6595 17.8714 11.5098C17.7871 11.36 17.6656 11.2345 17.5186 11.1454Z" fill="white"/>
</g>
<defs>
<clipPath id="clip0_375_1636">
<rect width="12.448" height="12.0514" fill="white" transform="matrix(0 1 -1 0 20 5.77637)"/>
</clipPath>
</defs>
</svg>
