<svg width="93" height="83" viewBox="0 0 93 83" fill="none" xmlns="http://www.w3.org/2000/svg">
<path d="M19.878 21.4039C14.8511 28.2012 18.7151 35.1612 21.2754 37.7915C15.2116 39.0534 12.6499 43.325 12.9925 51.8805C13.3351 60.436 25.1169 63.1602 28.4244 62.4719C29.2848 66.6063 30.2598 71.2919 33.7044 74.0258C43.6066 80.7069 50.6853 73.1758 52.9869 68.5752C57.1972 70.3829 66.7873 72.4322 71.4648 66.1676C76.1424 59.9031 72.8115 52.3721 70.5613 49.3897C73.9915 47.909 80.4273 42.9081 78.7295 34.7496C75.8196 24.0829 66.9763 23.8719 62.9185 25.0998C64.0331 21.7046 64.0922 14.1581 55.4111 11.1337C44.5597 7.35315 39.6543 15.563 38.6315 18.939C37.2884 16.6304 26.1615 12.9073 19.878 21.4039Z" fill="#FBFBFB" stroke="#FBFBFB" stroke-width="4"/>
<path d="M80.0485 36.1608L75.2273 26.812C74.5368 25.6515 73.8443 24.5502 73.1449 23.5071C64.4374 10.5202 52.3664 5.40132 37.207 8.55589C25.4947 10.9931 16.7233 22.5689 14.3479 33.4425C13.1834 38.7733 12.8102 43.9744 12.8887 47.8367C9.85577 48.4678 4.57278 43.8175 5.09191 39.3961C5.61104 34.9746 10.3876 31.6801 14.3479 33.4425C16.7233 22.5689 25.4947 10.9931 37.207 8.55589C52.3664 5.40132 64.4374 10.5202 73.1449 23.5071C75.5161 22.5343 80.851 21.5008 83.2204 25.1486C85.5899 28.7964 82.093 34.01 80.0485 36.1608Z" fill="#71EBBE"/>
<path d="M73.1449 23.5071C64.4374 10.5202 52.3664 5.40132 37.207 8.55589C25.4947 10.9931 16.7233 22.5689 14.3479 33.4425M73.1449 23.5071C73.8443 24.5502 74.5368 25.6515 75.2273 26.812L80.0485 36.1608C82.093 34.01 85.5899 28.7964 83.2204 25.1486C80.851 21.5008 75.5161 22.5343 73.1449 23.5071ZM14.3479 33.4425C13.1834 38.7733 12.8102 43.9744 12.8887 47.8367C9.85577 48.4678 4.57278 43.8175 5.09191 39.3961C5.61104 34.9746 10.3876 31.6801 14.3479 33.4425Z" stroke="#71EBBE" stroke-width="3" stroke-linecap="round" stroke-linejoin="round"/>
<path d="M31.0091 42.5033C32.9534 44.0157 37.6598 45.7202 40.9316 40.4384M49.086 38.0025C51.8916 39.0481 55.0764 39.8005 57.3833 35.4097M40.2056 53.3658C43.972 54.8825 51.4907 56.1135 56.3429 49.5826" stroke="black" stroke-width="3" stroke-linecap="round" stroke-linejoin="round"/>
</svg>
