<svg width="160" height="160" viewBox="0 0 160 160" fill="none" xmlns="http://www.w3.org/2000/svg">
<circle cx="80" cy="80" r="80" fill="#F3F4F6"/>
<path d="M79.9998 83.125C96.4248 83.125 113.279 93.8042 114.371 115.258C114.413 116.085 114.125 116.895 113.57 117.51C113.015 118.125 112.239 118.494 111.412 118.537C102.746 118.979 62.6082 119.25 48.5915 118.537C47.7638 118.495 46.9867 118.126 46.4312 117.511C45.8756 116.896 45.5871 116.086 45.629 115.258C46.7207 93.8083 63.5748 83.125 79.9998 83.125ZM79.9998 45.625C75.8558 45.625 71.8816 47.2712 68.9513 50.2015C66.021 53.1317 64.3748 57.106 64.3748 61.25C64.3748 65.394 66.021 69.3683 68.9513 72.2985C71.8816 75.2288 75.8558 76.875 79.9998 76.875C84.1439 76.875 88.1181 75.2288 91.0484 72.2985C93.9786 69.3683 95.6248 65.394 95.6248 61.25C95.6248 57.106 93.9786 53.1317 91.0484 50.2015C88.1181 47.2712 84.1439 45.625 79.9998 45.625Z" fill="#06B796"/>
</svg>
