<svg width="275" height="87" viewBox="0 0 275 87" fill="none" xmlns="http://www.w3.org/2000/svg">
<path d="M47.184 20.348H31.072V68H16.252V20.348H0.14V8.34H47.184V20.348ZM63.9485 22.476V29.012C65.7219 26.58 67.8499 24.7053 70.3325 23.388C72.8152 22.02 75.5259 21.336 78.4645 21.336C79.5285 21.336 80.5672 21.412 81.5805 21.564C82.5939 21.716 83.3792 21.9187 83.9365 22.172L82.0365 37.22C80.1112 36.5613 78.0845 36.232 75.9565 36.232C72.3592 36.232 69.4459 37.1187 67.2165 38.892C65.0379 40.6147 63.9485 43.224 63.9485 46.72V68H49.2045V22.476H63.9485ZM107.613 68H92.4129V29.468H107.613V68ZM98.2649 1.652C98.5689 2.00666 98.8729 2.488 99.1769 3.096C99.5316 3.704 99.7849 4.23599 99.9369 4.692C100.089 4.18533 100.342 3.628 100.697 3.02C101.052 2.36133 101.356 1.90533 101.609 1.652C102.318 0.993331 103.154 0.663997 104.117 0.663997C105.029 0.663997 105.814 0.967998 106.473 1.576C107.132 2.23466 107.461 3.07066 107.461 4.084C107.461 4.54 107.385 4.97066 107.233 5.376C107.638 5.224 108.069 5.148 108.525 5.148C109.538 5.148 110.374 5.47733 111.033 6.136C111.641 6.79466 111.945 7.55466 111.945 8.416C111.945 9.37866 111.616 10.2147 110.957 10.924C110.45 11.4307 110.02 11.8107 109.665 12.064C109.361 12.3173 108.905 12.52 108.297 12.672C108.905 12.8747 109.386 13.1027 109.741 13.356C110.096 13.6093 110.501 13.964 110.957 14.42C111.616 15.0787 111.945 15.8893 111.945 16.852C111.945 17.7133 111.641 18.4987 111.033 19.208C110.273 19.8667 109.462 20.196 108.601 20.196C108.297 20.196 107.841 20.0947 107.233 19.892C107.385 20.348 107.461 20.7787 107.461 21.184C107.461 22.1973 107.132 23.0333 106.473 23.692C105.865 24.3 105.08 24.604 104.117 24.604C103.104 24.604 102.268 24.2747 101.609 23.616C100.748 22.6027 100.19 21.6147 99.9369 20.652C99.6329 21.716 99.1262 22.6533 98.4169 23.464C97.7076 24.224 96.8462 24.604 95.8329 24.604C94.9716 24.604 94.1862 24.3 93.4769 23.692C92.7676 22.9827 92.4129 22.172 92.4129 21.26C92.4129 20.956 92.5142 20.5 92.7169 19.892C92.1089 20.0947 91.6529 20.196 91.3489 20.196C90.3862 20.196 89.5756 19.8667 88.9169 19.208C88.3089 18.4987 88.0049 17.7133 88.0049 16.852C88.0049 15.8893 88.3342 15.0787 88.9929 14.42C89.4996 13.9133 89.9302 13.5333 90.2849 13.28C90.6396 13.0267 91.1209 12.824 91.7289 12.672C91.1209 12.4693 90.6142 12.2413 90.2089 11.988C89.8542 11.7347 89.4489 11.38 88.9929 10.924C88.3342 10.2147 88.0049 9.37866 88.0049 8.416C88.0049 7.55466 88.3089 6.79466 88.9169 6.136C89.5756 5.47733 90.4116 5.148 91.4249 5.148C91.9316 5.148 92.3622 5.224 92.7169 5.376C92.5142 4.768 92.4129 4.312 92.4129 4.00799C92.4129 3.096 92.7676 2.28533 93.4769 1.576C94.1862 0.967998 94.9462 0.663997 95.7569 0.663997C96.6689 0.663997 97.5049 0.993331 98.2649 1.652ZM136.411 27.568C137.982 25.5413 140.008 24.072 142.491 23.16C145.024 22.1973 147.684 21.716 150.471 21.716C156.956 21.716 161.972 23.8187 165.519 28.024C169.116 32.2293 170.915 37.8787 170.915 44.972C170.915 49.836 170.003 54.0413 168.179 57.588C166.406 61.1347 163.974 63.8707 160.883 65.796C157.792 67.6707 154.296 68.608 150.395 68.608C148.216 68.608 145.936 68.3293 143.555 67.772C141.224 67.2147 139.375 66.404 138.007 65.34L141.047 54.396C141.706 54.9027 142.668 55.3587 143.935 55.764C145.202 56.1187 146.342 56.296 147.355 56.296H147.583C150.522 56.1947 152.7 55.156 154.119 53.18C155.538 51.1533 156.247 48.4933 156.247 45.2C156.247 41.8053 155.436 39.0693 153.815 36.992C152.194 34.864 149.787 33.8 146.595 33.8C143.859 33.8 141.554 34.7627 139.679 36.688C137.804 38.5627 136.715 40.8933 136.411 43.68V86.924H121.743V22.552H136.411V27.568ZM203.805 68.38C198.789 68.38 194.432 67.3667 190.733 65.34C187.034 63.2627 184.197 60.3747 182.221 56.676C180.296 52.9773 179.333 48.696 179.333 43.832V8.34H194.077V44.668C194.077 48.4173 194.938 51.2293 196.661 53.104C198.384 54.928 200.765 55.84 203.805 55.84C206.845 55.84 209.226 54.928 210.949 53.104C212.672 51.2293 213.533 48.4173 213.533 44.668V8.34H228.277V43.832C228.277 48.696 227.289 52.9773 225.313 56.676C223.388 60.3747 220.576 63.2627 216.877 65.34C213.178 67.3667 208.821 68.38 203.805 68.38ZM271.6 35.852C269.877 35.092 267.597 34.4587 264.76 33.952C261.973 33.4453 259.516 33.192 257.388 33.192C253.74 33.192 251.916 34.1293 251.916 36.004C251.916 36.8147 252.195 37.4227 252.752 37.828C253.36 38.1827 254.323 38.512 255.64 38.816C260.859 39.9307 264.76 41.02 267.344 42.084C269.776 43.0973 271.651 44.6173 272.968 46.644C274.285 48.62 274.944 50.976 274.944 53.712C274.944 55.1307 274.767 56.5493 274.412 57.968C272.689 64.96 266.761 68.456 256.628 68.456C248.775 68.456 241.58 67.012 235.044 64.124L237.78 51.964C239.401 53.028 242.087 53.9653 245.836 54.776C249.636 55.5867 252.752 55.992 255.184 55.992C258.376 55.992 260.073 55.2827 260.276 53.864C260.428 52.9013 260.175 52.1667 259.516 51.66C258.857 51.1027 257.768 50.596 256.248 50.14C254.221 49.5827 252.929 49.2533 252.372 49.152C248.825 48.2907 246.368 47.5813 245 47.024C239.579 44.7947 236.995 40.6147 237.248 34.484C237.4 29.5693 239.376 26.124 243.176 24.148C246.976 22.172 251.587 21.184 257.008 21.184C260.048 21.184 263.063 21.4627 266.052 22.02C269.092 22.5773 271.752 23.388 274.032 24.452L271.6 35.852Z" fill="#06B796"/>
</svg>
