<svg width="1204" height="302" viewBox="0 0 1204 302" fill="none" xmlns="http://www.w3.org/2000/svg">
<path d="M33 261L54.5 40.5H1176L1136.5 261H33Z" fill="white"/>
<path d="M13.3334 7.33332C13.3334 8.39999 16.6667 20.8 20.8 34.8L28.4 60.2667L23.4667 91.8667C20.6667 109.2 14.5334 148.533 9.73336 179.333C3.60002 218.4 0.933357 239.333 0.800023 248.667C0.66669 261.2 0.933357 262.533 5.06669 270.933C11.7334 284.533 23.0667 293.067 38.5334 296C48.9334 298 1112.67 297.867 1123.47 295.867C1141.07 292.667 1156.13 281.467 1164.53 265.467C1170.13 254.667 1168.93 261.2 1187.47 139.333C1194.4 93.0667 1200.13 51.7333 1200.27 47.3333C1200.53 26.6667 1188.13 11.4667 1167.47 7.06666C1160.93 5.73332 1046.53 5.33332 586.4 5.33332C87.3334 5.46666 13.3334 5.73332 13.3334 7.33332ZM251.333 53.4667C261.467 55.3333 270.533 59.8667 275.733 65.8667C280.267 70.9333 284 81.6 284 89.0667C284 97.0667 266.8 202.933 263.867 212.667C256.933 236 241.067 249.067 216.267 251.867C195.333 254.133 176 249.467 167.467 240C156.667 228 156 219.467 163.2 175.333C165.867 158.4 169.867 133.6 172.133 120.267C176.533 93.0667 179.2 84 185.867 74C197.467 56.5333 223.6 48.2667 251.333 53.4667ZM508 54.1333C519.467 56.6667 528.267 62.5333 533.067 70.5333C536.267 76 536.667 78 536.667 88.6667C536.667 95.2 535.867 105.867 534.8 112.267L533.067 124H515.067H497.067L497.867 120.267C500.133 109.067 501.333 97.4667 500.667 93.6C498.4 81.6 474.8 81.3333 468.667 93.4667C467.467 95.7333 464.133 112.133 461.2 129.867C458.4 147.6 454.533 171.333 452.667 182.667C448.8 206.8 448.667 210.4 451.333 214.267C456 220.933 471.2 221.467 478.533 215.2C482.533 211.867 483.867 207.867 486.8 190.267L488.267 181.333H505.6H522.933L522 188.933C520.4 202.667 517.2 216.533 514 223.467C505.6 242.133 486.667 252.4 460.667 252.4C429.333 252.4 412.933 239.6 413.2 215.333C413.2 204.533 429.6 100.133 432.933 89.4667C437.2 75.7333 446.533 64.2667 458.533 58.1333C469.733 52.2667 492.133 50.5333 508 54.1333ZM1017.73 55.2C1032.93 59.8667 1041.33 70.8 1041.33 85.8667C1041.33 90.4 1040.67 97.8667 1040 102.667C1037.6 118.267 1039.73 116.667 1020.4 116.4C1007.2 116.133 1003.47 115.733 1003.73 114.4C1005.33 108.933 1005.47 92.1333 1004.13 89.6C1002.27 86 993.6 83.6 987.2 84.8C976.8 86.6667 970.667 97.2 970.667 112.933C970.667 119.067 971.2 120.667 975.2 124.933C977.733 127.733 986.533 133.867 994.8 138.667C1013.07 149.067 1020 155.067 1024 164.4C1026.67 170.667 1026.93 172.8 1026.27 185.333C1023.87 229.067 1006.27 249.867 969.867 252.4C952 253.733 932 247.467 925.6 238.667C918.267 228.933 917.333 219.467 920.8 196.533L923.067 182.667H940.267C956 182.667 957.467 182.8 956.8 184.933C956.4 186.267 955.467 192.267 954.667 198.267C953.467 207.467 953.6 209.867 955.2 213.2C957.733 218 964.667 220.533 972.933 219.6C983.867 218.4 988.933 210.667 990.133 193.6C991.2 178.267 989.333 176.133 961.467 160.133C950 153.6 944.4 148.667 940 140.8C936.4 134.667 936 132.8 936 121.733C936 74.5333 957.733 50.6667 999.333 52.5333C1006 52.9333 1014.27 54 1017.73 55.2ZM171.333 58.9333C170.533 62.9333 166.667 85.7333 166.667 86.9333C166.667 87.6 158.933 88 149.333 88H132.133L131.333 92.2667C130.667 96.2667 119.2 169.2 111.333 219.333C109.467 231.067 107.6 242.267 107.2 244.267L106.4 248H88.6667C74.9334 248 70.9334 247.6 71.3334 246.267C71.7334 245.467 77.3334 210.133 84 168C90.6667 125.867 96.2667 90.5333 96.6667 89.6C97.0667 88.4 93.2 88 80 88C70.4 88 62.6667 87.6 62.6667 86.9333C62.6667 86.4 63.6 79.2 64.9334 70.9333L67.0667 56H119.6H172L171.333 58.9333ZM340.4 90.9333C328 167.067 322.667 201.867 322.667 206.667C322.667 210.267 323.733 213.067 325.867 215.6C328.8 218.933 329.867 219.333 337.733 219.333C344.533 219.333 347.333 218.667 350.267 216.533C356.933 211.6 354.8 221.6 376.8 86.9333L381.867 56H399.333H416.8L411.2 90.9333C408.133 110.267 402.8 143.333 399.333 164.667C396 185.867 392.267 206.667 391.2 210.667C383.2 238.933 364.533 252.4 333.467 252.267C311.333 252.133 297.067 245.733 290.4 232.8C284.933 222.4 285.6 212.8 295.2 153.333C300.133 123.6 305.6 89.6 307.6 77.6L311.067 56H328.667H346.133L340.4 90.9333ZM600.8 57.0667C600.4 57.7333 597.733 73.7333 594.667 92.8C591.733 111.733 588.933 128.667 588.667 130.267C588 133.333 588 133.333 605.6 133.333H623.333L629.067 96.9333C632.133 77.0667 634.667 59.6 634.667 58.2667C634.667 56.2667 636.4 56 652.8 56H670.933L670.133 60.9333C669.733 63.7333 666.667 82.8 663.333 103.333C660 123.867 653.6 164.667 648.933 194L640.533 247.333L622.933 247.733C611.467 248 605.333 247.6 605.333 246.667C605.333 246 608 228.267 611.333 207.467C614.667 186.533 617.333 168.8 617.333 168.133C617.333 167.2 611.067 166.667 599.333 166.667C582 166.667 581.333 166.8 581.333 169.467C581.333 172 571.467 236.267 569.867 244.267L569.067 248H551.067C536.133 248 533.2 247.733 533.733 246.133C534.133 245.067 541.333 201.867 549.6 150.133L564.667 56H583.067C593.2 56 601.2 56.5333 600.8 57.0667ZM767.067 58C784.4 62.5333 792.533 72.8 792.267 90C792.267 99.2 789.333 118.267 786.533 128.667C784.533 135.733 775.2 144.667 767.733 146.8L762 148.267L768.933 150.933C778.267 154.4 781.733 159.333 782.4 170C783.067 179.867 778.267 209.467 774.267 219.867C770.4 230 760.533 239.867 750 244.133C742.267 247.2 740.533 247.333 703.067 247.733C681.6 248 664 247.867 664 247.467C664 247.2 667.867 222.933 672.667 193.733C677.467 164.533 684.533 121.6 688.267 98.2667L695.2 56H727.333C751.467 56 761.333 56.5333 767.067 58ZM897.867 78.9333C898.267 91.6 899.6 128.4 900.667 160.667C901.733 192.933 902.933 225.733 903.333 233.6L904 248H886H868V228.8V209.6H849.333L830.667 209.733L824.4 228.933L818.133 248H800.4H782.8L784.533 242.933C785.6 240.267 794.533 215.2 804.4 187.333C814.267 159.467 828.8 118.533 836.8 96.2667L851.2 56H874H896.933L897.867 78.9333ZM1152 58.1333C1152 59.2 1151.07 66.4 1149.87 74.1333L1147.6 88H1123.2C1109.73 88 1098.67 88.2667 1098.67 88.5333C1098.67 88.8 1097.2 98.6667 1095.33 110.267C1093.47 121.867 1092 132.133 1092 132.933C1092 134.267 1097.07 134.667 1113.07 134.667H1134.13L1131.87 148.933C1130.53 156.933 1129.47 164.133 1129.33 164.933C1129.33 166.267 1124 166.667 1107.6 166.667H1085.73L1082.13 188.933C1080.13 201.333 1078.27 212.667 1077.87 214.267L1077.33 217.333H1102.67C1116.53 217.333 1128 217.733 1128 218.267C1128 218.933 1127.07 225.733 1125.87 233.733L1123.6 248H1080.4H1037.2L1038 243.6C1042.27 218.267 1066.93 67.0667 1067.6 62.2667L1068.4 56H1110.13C1147.2 56 1152 56.2667 1152 58.1333Z" fill="#0033A0"/>
<path d="M224 85.4666C217.333 87.4666 213.467 91.6 211.333 99.3333C209.467 106 193.333 203.333 193.333 208.133C193.333 209.467 195.067 212.533 197.2 214.933C200.933 219.067 201.6 219.333 210.267 219.333C220.933 219.333 225.867 216.933 228.667 210.133C230.267 206.267 236 173.6 244.8 117.6C248.4 94.5333 248.133 90.4 242.8 87.0666C239.2 84.8 229.2 84 224 85.4666Z" fill="#0033A0"/>
<path d="M724.667 92.8C724.133 96.4 722.4 107.333 720.8 116.933L717.867 134.667H728.667C741.067 134.667 747.6 132.133 750.533 126.133C753.067 120.667 756.533 99.7334 755.467 95.6C754.133 90 749.333 87.7334 736.8 87.0667L725.6 86.2667L724.667 92.8Z" fill="#0033A0"/>
<path d="M708.8 187.6C706.667 200 704.8 211.733 704.267 213.867L703.6 217.733L718.133 217.067C726.133 216.8 734.133 215.733 735.733 214.8C740 212.533 742 207.2 744.667 190.4C748.4 168.133 746 165.333 724 165.333H712.4L708.8 187.6Z" fill="#0033A0"/>
<path d="M865.6 104.533C865.333 106.4 844.933 169.467 841.733 178.267C841.2 179.6 844.267 180 854.133 180H867.333L866.933 145.733C866.667 113.733 866.133 98.5333 865.6 104.533Z" fill="#0033A0"/>
</svg>
