<svg width="1201" height="293" viewBox="0 0 1201 293" fill="none" xmlns="http://www.w3.org/2000/svg">
<path d="M13.3336 2.33289C13.3336 3.39955 16.6669 15.7996 20.8003 29.7996L28.4003 55.2662L23.4669 86.8662C20.6669 104.2 14.5336 143.533 9.7336 174.333C3.60027 213.4 0.933601 234.333 0.800267 243.666C0.666934 256.2 0.933601 257.533 5.06693 265.933C11.7336 279.533 23.0669 288.066 38.5336 291C48.9336 293 1112.67 292.866 1123.47 290.866C1141.07 287.666 1156.13 276.466 1164.53 260.466C1170.13 249.666 1168.93 256.2 1187.47 134.333C1194.4 88.0662 1200.13 46.7329 1200.27 42.3329C1200.53 21.6662 1188.13 6.46622 1167.47 2.06622C1160.93 0.73289 1046.53 0.332886 586.4 0.332886C87.3336 0.466219 13.3336 0.732886 13.3336 2.33289ZM251.334 48.4662C261.467 50.3329 270.534 54.8662 275.734 60.8662C280.267 65.9329 284 76.5996 284 84.0662C284 92.0662 266.8 197.933 263.867 207.666C256.934 231 241.067 244.066 216.267 246.866C195.334 249.133 176 244.466 167.467 235C156.667 223 156 214.466 163.2 170.333C165.867 153.4 169.867 128.6 172.134 115.266C176.534 88.0662 179.2 78.9996 185.867 68.9996C197.467 51.5329 223.6 43.2662 251.334 48.4662ZM508 49.1329C519.467 51.6662 528.267 57.5329 533.067 65.5329C536.267 70.9996 536.667 72.9996 536.667 83.6662C536.667 90.1996 535.867 100.866 534.8 107.266L533.067 119H515.067H497.067L497.867 115.266C500.134 104.066 501.334 92.4662 500.667 88.5996C498.4 76.5996 474.8 76.3329 468.667 88.4662C467.467 90.7329 464.134 107.133 461.2 124.866C458.4 142.6 454.534 166.333 452.667 177.666C448.8 201.8 448.667 205.4 451.334 209.266C456 215.933 471.2 216.466 478.534 210.2C482.534 206.866 483.867 202.866 486.8 185.266L488.267 176.333H505.6H522.934L522 183.933C520.4 197.666 517.2 211.533 514 218.466C505.6 237.133 486.667 247.4 460.667 247.4C429.334 247.4 412.934 234.6 413.2 210.333C413.2 199.533 429.6 95.1329 432.934 84.4662C437.2 70.7329 446.534 59.2662 458.534 53.1329C469.734 47.2662 492.134 45.5329 508 49.1329ZM1017.73 50.1996C1032.93 54.8662 1041.33 65.7996 1041.33 80.8662C1041.33 85.3996 1040.67 92.8662 1040 97.6662C1037.6 113.266 1039.73 111.666 1020.4 111.4C1007.2 111.133 1003.47 110.733 1003.73 109.4C1005.33 103.933 1005.47 87.1329 1004.13 84.5996C1002.27 80.9996 993.6 78.5996 987.2 79.7996C976.8 81.6662 970.667 92.1996 970.667 107.933C970.667 114.066 971.2 115.666 975.2 119.933C977.734 122.733 986.534 128.866 994.8 133.666C1013.07 144.066 1020 150.066 1024 159.4C1026.67 165.666 1026.93 167.8 1026.27 180.333C1023.87 224.066 1006.27 244.866 969.867 247.4C952 248.733 932 242.466 925.6 233.666C918.267 223.933 917.334 214.466 920.8 191.533L923.067 177.666H940.267C956 177.666 957.467 177.8 956.8 179.933C956.4 181.266 955.467 187.266 954.667 193.266C953.467 202.466 953.6 204.866 955.2 208.2C957.734 213 964.667 215.533 972.934 214.6C983.867 213.4 988.934 205.666 990.134 188.6C991.2 173.266 989.334 171.133 961.467 155.133C950 148.6 944.4 143.666 940 135.8C936.4 129.666 936 127.8 936 116.733C936 69.5329 957.734 45.6662 999.333 47.5329C1006 47.9329 1014.27 48.9996 1017.73 50.1996ZM171.334 53.9329C170.534 57.9329 166.667 80.7329 166.667 81.9329C166.667 82.5996 158.934 82.9996 149.334 82.9996H132.134L131.334 87.2662C130.667 91.2662 119.2 164.2 111.334 214.333C109.467 226.066 107.6 237.266 107.2 239.266L106.4 243H88.6669C74.9336 243 70.9336 242.6 71.3336 241.266C71.7336 240.466 77.3336 205.133 84.0003 163C90.6669 120.866 96.2669 85.5329 96.6669 84.5996C97.0669 83.3996 93.2003 82.9996 80.0003 82.9996C70.4003 82.9996 62.6669 82.5996 62.6669 81.9329C62.6669 81.3996 63.6003 74.1996 64.9336 65.9329L67.0669 50.9996H119.6H172L171.334 53.9329ZM340.4 85.9329C328 162.066 322.667 196.866 322.667 201.666C322.667 205.266 323.734 208.066 325.867 210.6C328.8 213.933 329.867 214.333 337.734 214.333C344.534 214.333 347.334 213.666 350.267 211.533C356.934 206.6 354.8 216.6 376.8 81.9329L381.867 50.9996H399.334H416.8L411.2 85.9329C408.134 105.266 402.8 138.333 399.334 159.666C396 180.866 392.267 201.666 391.2 205.666C383.2 233.933 364.534 247.4 333.467 247.266C311.334 247.133 297.067 240.733 290.4 227.8C284.934 217.4 285.6 207.8 295.2 148.333C300.134 118.6 305.6 84.5996 307.6 72.5996L311.067 50.9996H328.667H346.134L340.4 85.9329ZM600.8 52.0662C600.4 52.7329 597.734 68.7329 594.667 87.7996C591.734 106.733 588.934 123.666 588.667 125.266C588 128.333 588 128.333 605.6 128.333H623.334L629.067 91.9329C632.134 72.0662 634.667 54.5996 634.667 53.2662C634.667 51.2662 636.4 50.9996 652.8 50.9996H670.934L670.134 55.9329C669.734 58.7329 666.667 77.7996 663.334 98.3329C660 118.866 653.6 159.666 648.934 189L640.534 242.333L622.934 242.733C611.467 243 605.334 242.6 605.334 241.666C605.334 241 608 223.266 611.334 202.466C614.667 181.533 617.334 163.8 617.334 163.133C617.334 162.2 611.067 161.666 599.334 161.666C582 161.666 581.334 161.8 581.334 164.466C581.334 167 571.467 231.266 569.867 239.266L569.067 243H551.067C536.134 243 533.2 242.733 533.734 241.133C534.134 240.066 541.334 196.866 549.6 145.133L564.667 50.9996H583.067C593.2 50.9996 601.2 51.5329 600.8 52.0662ZM767.067 52.9996C784.4 57.5329 792.534 67.7996 792.267 84.9996C792.267 94.1996 789.334 113.266 786.534 123.666C784.534 130.733 775.2 139.666 767.734 141.8L762 143.266L768.934 145.933C778.267 149.4 781.734 154.333 782.4 165C783.067 174.866 778.267 204.466 774.267 214.866C770.4 225 760.534 234.866 750 239.133C742.267 242.2 740.534 242.333 703.067 242.733C681.6 243 664 242.866 664 242.466C664 242.2 667.867 217.933 672.667 188.733C677.467 159.533 684.534 116.6 688.267 93.2662L695.2 50.9996H727.334C751.467 50.9996 761.334 51.5329 767.067 52.9996ZM897.867 73.9329C898.267 86.5996 899.6 123.4 900.667 155.666C901.734 187.933 902.934 220.733 903.334 228.6L904 243H886H868V223.8V204.6H849.334L830.667 204.733L824.4 223.933L818.134 243H800.4H782.8L784.534 237.933C785.6 235.266 794.534 210.2 804.4 182.333C814.267 154.466 828.8 113.533 836.8 91.2662L851.2 50.9996H874H896.934L897.867 73.9329ZM1152 53.1329C1152 54.1996 1151.07 61.3996 1149.87 69.1329L1147.6 82.9996H1123.2C1109.73 82.9996 1098.67 83.2662 1098.67 83.5329C1098.67 83.7996 1097.2 93.6662 1095.33 105.266C1093.47 116.866 1092 127.133 1092 127.933C1092 129.266 1097.07 129.666 1113.07 129.666H1134.13L1131.87 143.933C1130.53 151.933 1129.47 159.133 1129.33 159.933C1129.33 161.266 1124 161.666 1107.6 161.666H1085.73L1082.13 183.933C1080.13 196.333 1078.27 207.666 1077.87 209.266L1077.33 212.333H1102.67C1116.53 212.333 1128 212.733 1128 213.266C1128 213.933 1127.07 220.733 1125.87 228.733L1123.6 243H1080.4H1037.2L1038 238.6C1042.27 213.266 1066.93 62.0662 1067.6 57.2662L1068.4 50.9996H1110.13C1147.2 50.9996 1152 51.2662 1152 53.1329Z" fill="white"/>
<path d="M224.001 80.4663C217.334 82.4663 213.467 86.5997 211.334 94.333C209.467 101 193.334 198.333 193.334 203.133C193.334 204.466 195.067 207.533 197.201 209.933C200.934 214.066 201.601 214.333 210.267 214.333C220.934 214.333 225.867 211.933 228.667 205.133C230.267 201.266 236.001 168.6 244.801 112.6C248.401 89.533 248.134 85.3997 242.801 82.0663C239.201 79.7997 229.201 78.9997 224.001 80.4663Z" fill="white"/>
<path d="M724.667 87.7993C724.134 91.3993 722.401 102.333 720.801 111.933L717.867 129.666H728.667C741.067 129.666 747.601 127.133 750.534 121.133C753.067 115.666 756.534 94.7327 755.467 90.5993C754.134 84.9993 749.334 82.7327 736.801 82.066L725.601 81.266L724.667 87.7993Z" fill="white"/>
<path d="M708.801 182.599C706.667 194.999 704.801 206.732 704.267 208.866L703.601 212.732L718.134 212.066C726.134 211.799 734.134 210.732 735.734 209.799C740.001 207.532 742.001 202.199 744.667 185.399C748.401 163.132 746.001 160.332 724.001 160.332H712.401L708.801 182.599Z" fill="white"/>
<path d="M865.6 99.5333C865.334 101.4 844.934 164.467 841.734 173.267C841.2 174.6 844.267 175 854.134 175H867.334L866.934 140.733C866.667 108.733 866.134 93.5333 865.6 99.5333Z" fill="white"/>
</svg>
