<svg width="19" height="19" viewBox="0 0 19 19" fill="none" xmlns="http://www.w3.org/2000/svg">
<rect width="19" height="19" rx="9.5" fill="#E19E1C"/>
<path d="M9.49976 11.5472H9.50609M9.49976 6.79718V9.17218M8.37163 3.01063L2.78405 12.3388C2.66892 12.5384 2.60803 12.7646 2.60743 12.9949C2.60682 13.2253 2.66652 13.4518 2.7806 13.6519C2.89467 13.852 3.05914 14.0188 3.25766 14.1357C3.45618 14.2525 3.68183 14.3154 3.91217 14.318H15.0873C15.3178 14.3156 15.5436 14.2529 15.7422 14.1361C15.9409 14.0193 16.1055 13.8525 16.2196 13.6523C16.3337 13.4521 16.3934 13.2255 16.3927 12.995C16.3919 12.7646 16.3308 12.5383 16.2155 12.3388L10.6287 3.01063C10.5112 2.81662 10.3456 2.65619 10.148 2.54484C9.95037 2.4335 9.72738 2.375 9.50055 2.375C9.27372 2.375 9.05073 2.4335 8.85311 2.54484C8.6555 2.65619 8.48994 2.81662 8.37243 3.01063" stroke="white" stroke-width="1.5" stroke-miterlimit="10" stroke-linecap="round" stroke-linejoin="round"/>
</svg>
