<svg width="19" height="19" viewBox="0 0 19 19" fill="none" xmlns="http://www.w3.org/2000/svg">
<rect width="19" height="19" rx="9.5" fill="#DB1F5A"/>
<path d="M9.50014 2.96875C9.17877 2.96875 8.88486 3.24187 8.90639 3.5625L9.20326 11.5781C9.20326 11.6569 9.23454 11.7324 9.29021 11.788C9.34589 11.8437 9.4214 11.875 9.50014 11.875C9.57887 11.875 9.65438 11.8437 9.71006 11.788C9.76573 11.7324 9.79701 11.6569 9.79701 11.5781L10.0939 3.5625C10.1154 3.24187 9.8215 2.96875 9.50014 2.96875Z" stroke="white" stroke-width="1.5" stroke-linecap="round" stroke-linejoin="round"/>
<path d="M9.5 16.0312C9.82792 16.0312 10.0938 15.7654 10.0938 15.4375C10.0938 15.1096 9.82792 14.8438 9.5 14.8438C9.17208 14.8438 8.90625 15.1096 8.90625 15.4375C8.90625 15.7654 9.17208 16.0312 9.5 16.0312Z" stroke="white" stroke-width="1.5" stroke-linecap="round" stroke-linejoin="round"/>
</svg>
