<svg width="14" height="14" viewBox="0 0 14 14" fill="none" xmlns="http://www.w3.org/2000/svg">
<g clip-path="url(#clip0_77_77)">
<path fill-rule="evenodd" clip-rule="evenodd" d="M13.6371 1.1979C13.7384 1.28154 13.8221 1.38431 13.8837 1.50034C13.9452 1.61638 13.9833 1.74339 13.9957 1.87414C14.0082 2.00489 13.9948 2.13681 13.9562 2.26237C13.9177 2.38792 13.8548 2.50465 13.7711 2.6059L5.73109 12.3359L5.72809 12.3379C5.54543 12.5578 5.31596 12.7341 5.05646 12.854C4.79695 12.9739 4.51394 13.0343 4.22809 13.0309C3.93795 13.0276 3.65234 12.9586 3.39271 12.829C3.13308 12.6995 2.90619 12.5127 2.72909 12.2829L2.72809 12.2809L0.210093 9.0449C0.126016 8.94162 0.0634137 8.8226 0.0259599 8.6948C-0.011494 8.567 -0.0230449 8.43301 -0.00801499 8.30069C0.00701492 8.16837 0.0483229 8.04039 0.113485 7.92425C0.178647 7.80811 0.26635 7.70615 0.371447 7.62436C0.476545 7.54258 0.59692 7.4826 0.725509 7.44797C0.854097 7.41333 0.988308 7.40473 1.12027 7.42266C1.25223 7.4406 1.37927 7.48471 1.49395 7.55241C1.60863 7.62011 1.70864 7.71003 1.78809 7.8169L4.25209 10.9839L12.2281 1.3319C12.3117 1.23064 12.4145 1.14684 12.5305 1.08531C12.6466 1.02377 12.7736 0.985692 12.9043 0.973248C13.0351 0.960805 13.167 0.97424 13.2926 1.01279C13.4181 1.05133 13.5348 1.11423 13.6361 1.1979H13.6371Z" fill="white"/>
</g>
<defs>
<clipPath id="clip0_77_77">
<rect width="14" height="14" fill="white"/>
</clipPath>
</defs>
</svg>
