<svg width="64" height="64" viewBox="0 0 64 64" fill="none" xmlns="http://www.w3.org/2000/svg">
<g clip-path="url(#clip0_188_2041)">
<rect width="64" height="64" rx="8" fill="#06B796"/>
<path d="M30.4308 26.952H25.3428V42H20.6628V26.952H15.5748V23.16H30.4308V26.952ZM40.3042 42.12C38.7202 42.12 37.3442 41.8 36.1762 41.16C35.0082 40.504 34.1122 39.592 33.4882 38.424C32.8802 37.256 32.5762 35.904 32.5762 34.368V23.16H37.2322V34.632C37.2322 35.816 37.5042 36.704 38.0482 37.296C38.5922 37.872 39.3442 38.16 40.3042 38.16C41.2642 38.16 42.0162 37.872 42.5602 37.296C43.1042 36.704 43.3762 35.816 43.3762 34.632V23.16H48.0322V34.368C48.0322 35.904 47.7202 37.256 47.0962 38.424C46.4882 39.592 45.6002 40.504 44.4322 41.16C43.2642 41.8 41.8882 42.12 40.3042 42.12Z" fill="white"/>
</g>
<defs>
<clipPath id="clip0_188_2041">
<rect width="64" height="64" fill="white"/>
</clipPath>
</defs>
</svg>
