<svg width="19" height="19" viewBox="0 0 19 19" fill="none" xmlns="http://www.w3.org/2000/svg">
<path d="M9.17594 14.0677L9.1001 14.1436L9.01668 14.0677C5.41452 10.7992 3.0333 8.63795 3.0333 6.44632C3.0333 4.92962 4.17083 3.79209 5.68753 3.79209C6.85539 3.79209 7.99291 4.55044 8.39484 5.5818H9.80537C10.2073 4.55044 11.3448 3.79209 12.5127 3.79209C14.0294 3.79209 15.1669 4.92962 15.1669 6.44632C15.1669 8.63795 12.7857 10.7992 9.17594 14.0677ZM12.5127 2.27539C11.1931 2.27539 9.9267 2.88965 9.1001 3.85276C8.2735 2.88965 7.00706 2.27539 5.68753 2.27539C3.35181 2.27539 1.5166 4.10301 1.5166 6.44632C1.5166 9.3053 4.09499 11.6486 8.00049 15.1901L9.1001 16.1911L10.1997 15.1901C14.1052 11.6486 16.6836 9.3053 16.6836 6.44632C16.6836 4.10301 14.8484 2.27539 12.5127 2.27539Z" fill="black" fill-opacity="0.7"/>
</svg>
