<svg width="16" height="16" viewBox="0 0 16 16" fill="none" xmlns="http://www.w3.org/2000/svg">
<path d="M8.2834 11.9329L8.21907 11.9972L8.14831 11.9329C5.09266 9.16031 3.07272 7.32692 3.07272 5.4678C3.07272 4.18122 4.03766 3.21628 5.32425 3.21628C6.31492 3.21628 7.27986 3.85957 7.62081 4.73445H8.81734C9.15828 3.85957 10.1232 3.21628 11.1139 3.21628C12.4005 3.21628 13.3654 4.18122 13.3654 5.4678C13.3654 7.32692 11.3455 9.16031 8.2834 11.9329ZM11.1139 1.92969C9.99456 1.92969 8.92026 2.45076 8.21907 3.26774C7.51788 2.45076 6.44358 1.92969 5.32425 1.92969C3.3429 1.92969 1.78613 3.48003 1.78613 5.4678C1.78613 7.89302 3.97333 9.8808 7.2863 12.885L8.21907 13.7341L9.15185 12.885C12.4648 9.8808 14.652 7.89302 14.652 5.4678C14.652 3.48003 13.0952 1.92969 11.1139 1.92969Z" fill="white" fill-opacity="0.7"/>
</svg>
