<svg width="16" height="18" viewBox="0 0 16 18" fill="none" xmlns="http://www.w3.org/2000/svg">
<path fill-rule="evenodd" clip-rule="evenodd" d="M0.669438 1.76C0.696444 1.53294 0.776048 1.31531 0.90192 1.12441C1.02779 0.933517 1.19646 0.774616 1.39452 0.660344C1.59258 0.546072 1.81457 0.479579 2.04283 0.466152C2.2711 0.452725 2.49935 0.492735 2.70944 0.582999C3.77144 1.037 6.15144 2.116 9.17144 3.859C12.1924 5.603 14.3174 7.126 15.2404 7.817C16.0284 8.408 16.0304 9.58 15.2414 10.173C14.3274 10.86 12.2284 12.363 9.17144 14.129C6.11144 15.895 3.75944 16.961 2.70744 17.409C1.80144 17.796 0.787438 17.209 0.669438 16.232C0.531438 15.09 0.273438 12.497 0.273438 8.995C0.273438 5.495 0.530438 2.903 0.669438 1.76Z" fill="#5AABEB"/>
</svg>
