<svg width="20" height="20" viewBox="0 0 20 20" fill="none" xmlns="http://www.w3.org/2000/svg">
<path d="M8.90078 1C11.3008 1 13.1008 1.3 14.3008 2C15.6008 2.7 16.2008 3.9 16.2008 5.6C16.2008 6.6 15.9008 7.5 15.5008 8.2C15.274 8.54193 14.9795 8.83372 14.6355 9.05733C14.2915 9.28093 13.9053 9.43159 13.5008 9.5C14.0724 9.63353 14.6147 9.87079 15.1008 10.2C15.5008 10.5 15.9008 11 16.2008 11.5C16.5137 12.2244 16.6508 13.0125 16.6008 13.8C16.6361 14.5225 16.5006 15.2431 16.2052 15.9033C15.9099 16.5636 15.4629 17.1449 14.9008 17.6C13.4772 18.6167 11.7466 19.1112 10.0008 19H3.30078V1H8.90078ZM9.30078 8.1C10.4008 8.1 11.2008 8 11.6008 7.6C12.1008 7.3 12.3008 6.7 12.3008 6.1C12.3008 5.4 12.0008 4.9 11.5008 4.6C11.0008 4.3 10.2008 4.1 9.10078 4.1H7.10078V8.1H9.30078ZM7.10078 11.1V16H9.60078C10.7008 16 11.6008 15.7 12.0008 15.3C12.5008 14.8 12.7008 14.3 12.7008 13.5C12.7127 13.1977 12.6559 12.8967 12.5346 12.6196C12.4134 12.3424 12.2309 12.0964 12.0008 11.9C11.5008 11.5 10.7008 11.3 9.50078 11.3H7.00078L7.10078 11.1Z" fill="black"/>
</svg>
