<svg width="35" height="33" viewBox="0 0 35 33" fill="none" xmlns="http://www.w3.org/2000/svg">
<rect width="34.5043" height="33" rx="5" fill="#1E293B"/>
<path fill-rule="evenodd" clip-rule="evenodd" d="M9.50586 17.5435C9.50586 17.3322 9.5898 17.1295 9.73922 16.9801C9.88863 16.8307 10.0913 16.7467 10.3026 16.7467H19.8633C20.4972 16.7467 21.1052 16.4949 21.5534 16.0467C22.0017 15.5984 22.2535 14.9905 22.2535 14.3566V11.1697C22.2535 10.9583 22.3374 10.7557 22.4869 10.6063C22.6363 10.4569 22.8389 10.3729 23.0502 10.3729C23.2615 10.3729 23.4642 10.4569 23.6136 10.6063C23.763 10.7557 23.847 10.9583 23.847 11.1697V14.3566C23.847 15.4131 23.4273 16.4263 22.6802 17.1734C21.9331 17.9205 20.9198 18.3402 19.8633 18.3402H10.3026C10.0913 18.3402 9.88863 18.2563 9.73922 18.1068C9.5898 17.9574 9.50586 17.7548 9.50586 17.5435Z" fill="white"/>
<path fill-rule="evenodd" clip-rule="evenodd" d="M9.73913 18.1067C9.58977 17.9573 9.50586 17.7547 9.50586 17.5434C9.50586 17.3322 9.58977 17.1295 9.73913 16.9801L12.926 13.7932C13.0763 13.6481 13.2776 13.5678 13.4865 13.5696C13.6954 13.5714 13.8952 13.6552 14.0429 13.8029C14.1906 13.9507 14.2744 14.1505 14.2762 14.3594C14.278 14.5683 14.1977 14.7695 14.0526 14.9198L11.429 17.5434L14.0526 20.1671C14.1287 20.2405 14.1894 20.3285 14.2312 20.4257C14.2729 20.5229 14.2949 20.6274 14.2958 20.7332C14.2967 20.839 14.2766 20.9439 14.2365 21.0418C14.1965 21.1397 14.1373 21.2287 14.0625 21.3035C13.9877 21.3783 13.8987 21.4375 13.8008 21.4775C13.7029 21.5176 13.598 21.5377 13.4922 21.5368C13.3864 21.5359 13.2819 21.5139 13.1847 21.4722C13.0875 21.4304 12.9995 21.3697 12.926 21.2936L9.73913 18.1067Z" fill="white"/>
</svg>
