<svg width="26" height="26" viewBox="0 0 26 26" fill="none" xmlns="http://www.w3.org/2000/svg">
<path d="M4.33398 11.3448C4.33398 10.0415 4.33398 9.39045 4.6579 8.8672C4.98073 8.34286 5.56357 8.05145 6.72923 7.46969L11.0626 5.30303C12.0137 4.82636 12.4893 4.58911 13.0007 4.58911C13.512 4.58911 13.9876 4.82744 14.9387 5.30194L19.2721 7.46861C20.4377 8.05145 21.0206 8.34286 21.3434 8.86611C21.6673 9.39153 21.6673 10.0426 21.6673 11.3459V17.3334C21.6673 19.3766 21.6673 20.3971 21.0325 21.0319C20.3977 21.6668 19.3772 21.6668 17.334 21.6668H8.66732C6.62415 21.6668 5.60365 21.6668 4.96882 21.0319C4.33398 20.3971 4.33398 19.3766 4.33398 17.3334V11.3448Z" stroke="white" stroke-width="2"/>
<path d="M4.33398 10.8335L6.94915 13.4487C7.35539 13.855 7.9064 14.0834 8.48098 14.0835H17.5203C18.0949 14.0834 18.6459 13.855 19.0522 13.4487L21.6673 10.8335" stroke="white" stroke-width="2" stroke-linecap="round"/>
</svg>
