<svg width="612" height="338" viewBox="0 0 612 338" fill="none" xmlns="http://www.w3.org/2000/svg">
<path d="M56.928 118.8C72.192 118.8 82.656 128.496 82.656 143.472C82.656 158.448 72.192 168.048 56.928 168.048H21.408V186H4.128V118.8H56.928ZM52.128 153.552C57.312 153.552 65.376 153.552 65.376 143.472C65.376 133.296 57.312 133.296 52.128 133.296H21.408V153.552H52.128ZM129.596 186.96C100.028 186.96 87.3555 174.672 87.3555 152.304C87.3555 130.032 100.028 117.84 129.596 117.84C159.068 117.84 171.836 130.128 171.836 152.304C171.836 174.576 159.068 186.96 129.596 186.96ZM129.596 172.464C147.548 172.464 154.556 166.032 154.556 152.304C154.556 138.672 147.644 132.336 129.596 132.336C111.548 132.336 104.636 138.576 104.636 152.304C104.636 166.128 111.644 172.464 129.596 172.464ZM230.928 118.8C246.192 118.8 256.656 128.496 256.656 143.472C256.656 158.448 246.192 168.048 230.928 168.048H195.408V186H178.128V118.8H230.928ZM226.128 153.552C231.312 153.552 239.376 153.552 239.376 143.472C239.376 133.296 231.312 133.296 226.128 133.296H195.408V153.552H226.128ZM514.972 173.136H531.388V186H514.972V173.136Z" fill="#71EBBE"/>
<path d="M260.887 157.776C260.887 136.944 276.631 128.496 300.055 128.496C321.175 128.496 336.055 135.408 338.743 152.016H321.943C319.735 144.72 311.959 142.224 300.055 142.224C285.943 142.224 277.303 145.968 277.303 157.776C277.303 169.488 285.943 173.232 300.055 173.232C311.959 173.232 319.735 170.736 321.943 163.44H338.743C336.055 180.048 321.175 186.96 300.055 186.96C276.631 186.96 260.887 178.512 260.887 157.776ZM382.649 186.96C359.225 186.96 343.48 178.512 343.48 157.776C343.48 136.944 359.225 128.496 382.649 128.496C405.977 128.496 421.817 136.944 421.817 157.776C421.817 178.512 405.977 186.96 382.649 186.96ZM382.649 173.232C397.817 173.232 405.305 169.488 405.305 157.776C405.305 145.968 397.817 142.224 382.649 142.224C367.385 142.224 359.897 145.968 359.897 157.776C359.897 169.488 367.385 173.232 382.649 173.232ZM477.41 128.496C492.482 128.496 506.594 133.872 506.786 154.704L506.594 186H490.082V160.944C490.082 148.944 486.05 142.704 472.514 142.704C461.474 142.704 449.57 148.368 444.482 154.32V186H428.066V129.456H444.482V139.344C452.546 133.008 463.682 128.496 477.41 128.496Z" fill="#FBFBFB"/>
<path d="M15 249.562H1.0625V247.562H6.84375V243.594H9.28125V247.562H15V249.562ZM2.0625 257.75C2.0625 256.542 2.31771 255.458 2.82812 254.5C3.34896 253.542 4.0625 252.792 4.96875 252.25C5.875 251.708 6.89583 251.438 8.03125 251.438C9.1875 251.438 10.2188 251.708 11.125 252.25C12.0417 252.792 12.7552 253.542 13.2656 254.5C13.7865 255.448 14.0521 256.531 14.0625 257.75C14.0521 258.979 13.7865 260.078 13.2656 261.047C12.7552 262.005 12.0417 262.76 11.125 263.312C10.2188 263.854 9.1875 264.125 8.03125 264.125C6.89583 264.125 5.86979 263.854 4.95312 263.312C4.04688 262.76 3.33854 262.005 2.82812 261.047C2.31771 260.078 2.0625 258.979 2.0625 257.75ZM4.25 257.75C4.25 258.562 4.41146 259.292 4.73438 259.938C5.05729 260.573 5.50521 261.073 6.07812 261.438C6.65104 261.792 7.30208 261.969 8.03125 261.969C8.76042 261.969 9.41667 261.792 10 261.438C10.5833 261.073 11.0417 260.573 11.375 259.938C11.7083 259.292 11.875 258.562 11.875 257.75C11.875 256.948 11.7083 256.229 11.375 255.594C11.0417 254.948 10.5833 254.443 10 254.078C9.41667 253.703 8.76042 253.51 8.03125 253.5C7.30208 253.51 6.65104 253.703 6.07812 254.078C5.50521 254.443 5.05729 254.948 4.73438 255.594C4.41146 256.229 4.25 256.948 4.25 257.75ZM16.4375 243.438H18.75V254.469H22.4375V242.75H24.7812V270.531H22.4375V256.5H18.75V269.156H16.4375V243.438ZM37.875 244.562C39.3125 244.573 40.5938 244.854 41.7188 245.406C42.8542 245.948 43.7396 246.714 44.375 247.703C45.0208 248.693 45.3438 249.823 45.3438 251.094C45.3438 252.24 45.0781 253.276 44.5469 254.203C44.026 255.12 43.2917 255.865 42.3438 256.438C41.4062 257.01 40.3229 257.37 39.0938 257.516V262.25C42.2188 262.094 44.9479 261.833 47.2812 261.469L47.4688 263.281C45.5104 263.646 43.4792 263.917 41.375 264.094C39.2708 264.271 37.3229 264.38 35.5312 264.422C33.7396 264.464 31.6562 264.49 29.2812 264.5L28.9375 262.438C32.2083 262.438 34.7708 262.406 36.625 262.344V257.516C35.3854 257.37 34.2917 257.01 33.3438 256.438C32.4062 255.854 31.6771 255.104 31.1562 254.188C30.6354 253.271 30.375 252.24 30.375 251.094C30.375 249.823 30.6927 248.698 31.3281 247.719C31.9635 246.729 32.849 245.958 33.9844 245.406C35.1302 244.854 36.4271 244.573 37.875 244.562ZM32.7812 251.094C32.7812 251.938 32.9948 252.693 33.4219 253.359C33.8594 254.026 34.4635 254.547 35.2344 254.922C36.0156 255.286 36.8958 255.469 37.875 255.469C38.8438 255.469 39.7135 255.286 40.4844 254.922C41.2552 254.547 41.8542 254.026 42.2812 253.359C42.7188 252.693 42.9375 251.938 42.9375 251.094C42.9375 250.24 42.7188 249.479 42.2812 248.812C41.8542 248.146 41.2552 247.63 40.4844 247.266C39.7135 246.901 38.8438 246.719 37.875 246.719C36.8958 246.719 36.0156 246.901 35.2344 247.266C34.4635 247.63 33.8594 248.146 33.4219 248.812C32.9948 249.479 32.7812 250.24 32.7812 251.094ZM49.125 242.75H51.5625V270.594H49.125V242.75ZM80.3438 246.719H77.5V254.625C79.1667 254.5 80.5521 254.365 81.6562 254.219L81.8438 256.094C79.3438 256.469 76.7135 256.719 73.9531 256.844C71.2031 256.969 68.1667 257.042 64.8438 257.062L64.5625 254.969C66.1146 254.969 67.3125 254.964 68.1562 254.953V246.719H65.3438V244.719H80.3438V246.719ZM68.5938 259.344H71.0312V262.688H83.75V259.344H86.1875V270.156H68.5938V259.344ZM70.5625 254.922C72.2292 254.891 73.7396 254.839 75.0938 254.766V246.719H70.5625V254.922ZM83.75 268.156V264.656H71.0312V268.156H83.75ZM83.75 242.75H86.1875V249.219H90.375V251.312H86.1875V258.125H83.75V242.75ZM105.969 256.562H117.438V258.562H92.125V256.562H103.562V252.469H105.969V256.562ZM93.6562 251.969C95.3125 251.74 96.901 251.266 98.4219 250.547C99.9427 249.828 101.172 248.938 102.109 247.875C103.057 246.812 103.531 245.688 103.531 244.5V243.188H106V244.5C106 245.688 106.474 246.812 107.422 247.875C108.37 248.938 109.604 249.828 111.125 250.547C112.656 251.266 114.25 251.74 115.906 251.969L114.906 253.938C113.479 253.688 112.099 253.281 110.766 252.719C109.432 252.146 108.24 251.438 107.188 250.594C106.146 249.74 105.344 248.797 104.781 247.766C104.219 248.807 103.411 249.755 102.359 250.609C101.307 251.453 100.109 252.156 98.7656 252.719C97.4323 253.281 96.0417 253.688 94.5938 253.938L93.6562 251.969ZM95.1875 265.688C95.1875 264.667 95.5625 263.797 96.3125 263.078C97.0729 262.359 98.1719 261.812 99.6094 261.438C101.047 261.062 102.771 260.875 104.781 260.875C106.771 260.875 108.479 261.062 109.906 261.438C111.333 261.812 112.427 262.359 113.188 263.078C113.948 263.797 114.333 264.667 114.344 265.688C114.333 266.708 113.948 267.573 113.188 268.281C112.427 269 111.333 269.542 109.906 269.906C108.479 270.281 106.771 270.469 104.781 270.469C102.771 270.469 101.047 270.281 99.6094 269.906C98.1719 269.542 97.0729 269 96.3125 268.281C95.5625 267.573 95.1875 266.708 95.1875 265.688ZM97.6875 265.688C97.6771 266.292 97.9479 266.807 98.5 267.234C99.0521 267.661 99.8542 267.99 100.906 268.219C101.958 268.448 103.219 268.562 104.688 268.562C106.948 268.562 108.708 268.312 109.969 267.812C111.229 267.312 111.865 266.604 111.875 265.688C111.865 264.771 111.24 264.062 110 263.562C108.76 263.062 107.021 262.812 104.781 262.812C102.521 262.812 100.771 263.062 99.5312 263.562C98.2917 264.062 97.6771 264.771 97.6875 265.688ZM141.25 247.594H138.844V256.5C139.833 256.427 140.833 256.323 141.844 256.188L141.969 258.062C138.562 258.646 133.896 258.938 127.969 258.938L127.688 256.844C128.917 256.844 129.885 256.839 130.594 256.828V247.594H128.188V245.562H141.25V247.594ZM132.906 256.797C134.156 256.766 135.375 256.719 136.562 256.656V247.594H132.906V256.797ZM133.125 261.188H135.562V267.875H152.25V269.938H133.125V261.188ZM143.188 243.312H145.5V251.219H149.062V242.781H151.406V263.812H149.062V253.281H145.5V262.844H143.188V243.312ZM180.812 256.406H155.469V254.438H180.812V256.406ZM158.531 258.906H177.531V265.344H161.031V268.219H178.375V270.219H158.594V263.5H175.125V260.812H158.531V258.906ZM158.844 243.719H177.5V245.688H161.312V250.156H177.781V252.156H158.844V243.719ZM195.781 243.25C197.833 243.25 199.594 243.438 201.062 243.812C202.531 244.177 203.651 244.719 204.422 245.438C205.203 246.146 205.594 247.01 205.594 248.031C205.594 249.073 205.203 249.958 204.422 250.688C203.651 251.417 202.531 251.969 201.062 252.344C199.604 252.708 197.844 252.896 195.781 252.906C193.708 252.896 191.938 252.708 190.469 252.344C189 251.969 187.875 251.417 187.094 250.688C186.323 249.958 185.938 249.073 185.938 248.031C185.938 247.01 186.323 246.146 187.094 245.438C187.875 244.719 189 244.177 190.469 243.812C191.948 243.438 193.719 243.25 195.781 243.25ZM183.125 254.781H208.438V256.781H183.125V254.781ZM186.188 259.188H205.188V265.406H188.688V268.281H206.031V270.219H186.25V263.594H202.781V261.062H186.188V259.188ZM188.5 248.031C188.49 248.99 189.12 249.729 190.391 250.25C191.661 250.771 193.458 251.031 195.781 251.031C198.094 251.031 199.885 250.776 201.156 250.266C202.438 249.745 203.083 249 203.094 248.031C203.094 247.427 202.802 246.906 202.219 246.469C201.646 246.031 200.807 245.693 199.703 245.453C198.609 245.214 197.302 245.094 195.781 245.094C194.25 245.094 192.938 245.214 191.844 245.453C190.75 245.693 189.917 246.031 189.344 246.469C188.771 246.906 188.49 247.427 188.5 248.031ZM227.969 244.125C229.344 244.115 230.573 244.349 231.656 244.828C232.74 245.297 233.583 245.964 234.188 246.828C234.792 247.682 235.094 248.667 235.094 249.781C235.094 250.896 234.792 251.885 234.188 252.75C233.583 253.615 232.74 254.286 231.656 254.766C230.573 255.234 229.344 255.469 227.969 255.469C226.594 255.469 225.365 255.234 224.281 254.766C223.208 254.286 222.365 253.615 221.75 252.75C221.146 251.885 220.844 250.896 220.844 249.781C220.844 248.667 221.146 247.682 221.75 246.828C222.365 245.964 223.208 245.297 224.281 244.828C225.365 244.349 226.594 244.115 227.969 244.125ZM219.625 257.844C222.802 257.844 225.88 257.776 228.859 257.641C231.849 257.495 234.656 257.229 237.281 256.844L237.438 258.688C234.99 259.135 232.292 259.453 229.344 259.641V269.688H226.906V259.781C225.062 259.865 222.458 259.917 219.094 259.938L218.75 257.844H219.625ZM223.25 249.781C223.24 250.49 223.432 251.125 223.828 251.688C224.234 252.24 224.797 252.672 225.516 252.984C226.234 253.286 227.052 253.438 227.969 253.438C228.896 253.438 229.719 253.286 230.438 252.984C231.167 252.672 231.734 252.24 232.141 251.688C232.547 251.135 232.75 250.5 232.75 249.781C232.75 249.073 232.547 248.443 232.141 247.891C231.734 247.328 231.167 246.891 230.438 246.578C229.708 246.266 228.885 246.115 227.969 246.125C227.062 246.115 226.245 246.266 225.516 246.578C224.797 246.891 224.234 247.328 223.828 247.891C223.432 248.443 223.24 249.073 223.25 249.781ZM239.312 242.781H241.719V270.562H239.312V242.781ZM268.188 251.938H272.375V254H268.188V263.594H265.75V242.781H268.188V251.938ZM246.531 246.188H253.594V242.781H256.031V246.188H263.094V248.188H246.531V246.188ZM248.125 254.906C248.125 253.865 248.401 252.953 248.953 252.172C249.505 251.391 250.286 250.786 251.297 250.359C252.307 249.932 253.479 249.719 254.812 249.719C256.125 249.719 257.281 249.932 258.281 250.359C259.292 250.786 260.078 251.391 260.641 252.172C261.203 252.953 261.49 253.865 261.5 254.906C261.49 255.938 261.203 256.844 260.641 257.625C260.078 258.396 259.292 258.99 258.281 259.406C257.281 259.823 256.125 260.031 254.812 260.031C253.479 260.031 252.307 259.823 251.297 259.406C250.286 258.99 249.505 258.396 248.953 257.625C248.401 256.844 248.125 255.938 248.125 254.906ZM250.469 254.906C250.469 255.552 250.646 256.12 251 256.609C251.354 257.089 251.859 257.458 252.516 257.719C253.182 257.979 253.948 258.104 254.812 258.094C255.667 258.104 256.422 257.979 257.078 257.719C257.745 257.458 258.26 257.089 258.625 256.609C258.99 256.12 259.177 255.552 259.188 254.906C259.177 254.26 258.99 253.693 258.625 253.203C258.26 252.703 257.75 252.323 257.094 252.062C256.448 251.792 255.703 251.656 254.859 251.656C253.984 251.656 253.214 251.792 252.547 252.062C251.88 252.323 251.365 252.698 251 253.188C250.646 253.677 250.469 254.25 250.469 254.906ZM250.812 261.938H253.219V267.875H269.469V269.938H250.812V261.938ZM296.281 245.656C296.271 248.51 295.875 251.156 295.094 253.594C294.312 256.031 292.984 258.307 291.109 260.422C289.245 262.526 286.74 264.365 283.594 265.938L282.188 264.062C284.688 262.812 286.755 261.396 288.391 259.812C290.036 258.219 291.302 256.464 292.188 254.547L282.719 255.438L282.281 253.312L292.938 252.609C293.417 251.151 293.724 249.51 293.859 247.688H283.688V245.656H296.281ZM296.188 253.938H302.719V242.75H305.156V270.531H302.719V255.969H296.188V253.938ZM335.219 260.875H328.719V270.75H326.281V260.875H318.75V270.75H316.312V260.875H309.781V258.844H335.219V260.875ZM313.062 244.281H331.906V255.094H313.062V244.281ZM329.469 253.125V246.281H315.469V253.125H329.469ZM360.375 270.531H357.938V242.75H360.375V270.531ZM339.281 245.5H341.688V261.25C343.979 261.229 346.214 261.12 348.391 260.922C350.568 260.714 352.76 260.375 354.969 259.906L355.312 262C352.948 262.49 350.646 262.844 348.406 263.062C346.177 263.271 343.885 263.375 341.531 263.375H339.281V245.5ZM380.438 247.344H369.344V253.094H379.438V255.094H369.344V261.812C372.062 261.812 374.396 261.75 376.344 261.625C378.292 261.49 380.292 261.25 382.344 260.906L382.594 262.938C380.521 263.281 378.479 263.516 376.469 263.641C374.458 263.766 372.01 263.833 369.125 263.844H366.906V245.281H380.438V247.344ZM385.625 242.75H388.094V270.531H385.625V242.75ZM423.781 270.531H421.312V242.75H423.781V270.531ZM401.156 263.312C404.865 261.552 407.703 259.365 409.672 256.75C411.651 254.135 412.781 251.146 413.062 247.781H402.438V245.781H415.562C415.542 249.969 414.479 253.734 412.375 257.078C410.271 260.422 406.979 263.167 402.5 265.312L401.156 263.312ZM450.188 251.188H454.375V253.25H450.188V263.188H447.75V242.781H450.188V251.188ZM429.656 244.781H432.062V249.469H440.156V244.781H442.594V258.5H429.656V244.781ZM440.156 256.5V251.406H432.062V256.5H440.156ZM432.812 261.188H435.219V267.875H451.469V269.938H432.812V261.188ZM476.812 243.375C478.823 243.375 480.562 243.583 482.031 244C483.5 244.417 484.63 245.026 485.422 245.828C486.224 246.62 486.625 247.562 486.625 248.656C486.625 249.74 486.224 250.672 485.422 251.453C484.63 252.234 483.5 252.828 482.031 253.234C480.562 253.641 478.823 253.844 476.812 253.844C474.802 253.844 473.057 253.641 471.578 253.234C470.099 252.828 468.958 252.234 468.156 251.453C467.365 250.672 466.969 249.74 466.969 248.656C466.969 247.562 467.365 246.62 468.156 245.828C468.958 245.026 470.099 244.417 471.578 244C473.057 243.583 474.802 243.375 476.812 243.375ZM464.156 256.25H489.469V258.281H464.156V256.25ZM467.25 261.031H486.375V270.156H467.25V261.031ZM469.5 248.656C469.5 249.323 469.792 249.901 470.375 250.391C470.969 250.87 471.818 251.245 472.922 251.516C474.026 251.776 475.323 251.906 476.812 251.906C478.292 251.906 479.578 251.776 480.672 251.516C481.776 251.245 482.625 250.87 483.219 250.391C483.823 249.901 484.125 249.323 484.125 248.656C484.125 247.969 483.823 247.38 483.219 246.891C482.625 246.391 481.776 246.01 480.672 245.75C479.578 245.479 478.292 245.344 476.812 245.344C475.323 245.344 474.026 245.479 472.922 245.75C471.818 246.01 470.969 246.391 470.375 246.891C469.792 247.38 469.5 247.969 469.5 248.656ZM483.969 268.156V263H469.688V268.156H483.969ZM499.625 244.438C501.021 244.438 502.271 244.714 503.375 245.266C504.479 245.818 505.344 246.589 505.969 247.578C506.604 248.568 506.927 249.698 506.938 250.969C506.927 252.25 506.609 253.391 505.984 254.391C505.359 255.391 504.49 256.172 503.375 256.734C502.271 257.286 501.021 257.562 499.625 257.562C498.229 257.562 496.979 257.286 495.875 256.734C494.771 256.172 493.906 255.391 493.281 254.391C492.656 253.391 492.344 252.25 492.344 250.969C492.344 249.698 492.656 248.568 493.281 247.578C493.906 246.589 494.771 245.818 495.875 245.266C496.99 244.714 498.24 244.438 499.625 244.438ZM494.75 250.969C494.75 251.844 494.958 252.625 495.375 253.312C495.792 253.99 496.37 254.516 497.109 254.891C497.859 255.266 498.698 255.448 499.625 255.438C500.562 255.448 501.401 255.266 502.141 254.891C502.891 254.516 503.474 253.99 503.891 253.312C504.318 252.625 504.531 251.844 504.531 250.969C504.531 250.115 504.318 249.354 503.891 248.688C503.474 248.01 502.891 247.484 502.141 247.109C501.401 246.724 500.562 246.531 499.625 246.531C498.698 246.531 497.859 246.724 497.109 247.109C496.37 247.484 495.792 248.01 495.375 248.688C494.958 249.354 494.75 250.115 494.75 250.969ZM495.344 260.562H513.531V270.594H511.094V262.562H495.344V260.562ZM511.094 242.75H513.531V249.938H517.719V252H513.531V259.125H511.094V242.75ZM550.406 245.562H546.125V250.938H550.312V252.844H529.969V250.938H534.156V245.562H529.875V243.625H550.406V245.562ZM527.5 255.188H552.812V257.156H527.5V255.188ZM530.562 259.656H549.562V265.688H533.062V268.344H550.406V270.219H530.625V263.906H547.156V261.5H530.562V259.656ZM543.688 250.938V245.562H536.594V250.938H543.688ZM578.75 261.719H576.406V252.094H572.5V259.312H570.219V243.312H572.5V250.062H576.406V242.781H578.75V261.719ZM556.375 244.938H566.906V252.719H558.812V256.875C560.75 256.875 562.469 256.818 563.969 256.703C565.469 256.578 567 256.354 568.562 256.031L568.844 258C567.156 258.333 565.526 258.557 563.953 258.672C562.38 258.786 560.479 258.844 558.25 258.844H556.438V250.844H564.562V246.969H556.375V244.938ZM558.688 268.5C560.333 268.25 561.885 267.771 563.344 267.062C564.802 266.354 565.979 265.484 566.875 264.453C567.781 263.411 568.24 262.302 568.25 261.125V260.406H570.688V261.125C570.688 262.302 571.135 263.411 572.031 264.453C572.927 265.484 574.109 266.354 575.578 267.062C577.047 267.771 578.604 268.25 580.25 268.5L579.25 270.406C577.854 270.177 576.51 269.786 575.219 269.234C573.938 268.693 572.797 268.016 571.797 267.203C570.797 266.391 570.021 265.479 569.469 264.469C568.917 265.479 568.135 266.391 567.125 267.203C566.125 268.016 564.979 268.693 563.688 269.234C562.406 269.786 561.073 270.177 559.688 270.406L558.688 268.5ZM608.125 258.781H582.812V256.781H594.219V253.562H585.281V251.531H589.469V245.688H585.188V243.656H605.719V245.688H601.438V251.531H605.625V253.562H596.656V256.781H608.125V258.781ZM585.906 261.469H605.031V270.156H585.906V261.469ZM602.625 268.156V263.375H588.344V268.156H602.625ZM599 251.531V245.688H591.906V251.531H599Z" fill="#FBFBFB"/>
<path d="M516.878 21.4049C511.851 28.2021 515.715 35.1622 518.275 37.7925C512.212 39.0544 509.65 43.326 509.993 51.8815C510.335 60.437 522.117 63.1612 525.424 62.4729C526.285 66.6072 527.26 71.2928 530.704 74.0267C540.607 80.7079 547.685 73.1768 549.987 68.5762C554.197 70.3839 563.787 72.4331 568.465 66.1686C573.142 59.9041 569.811 52.3731 567.561 49.3906C570.991 47.91 577.427 42.9091 575.73 34.7506C572.82 24.0838 563.976 23.8729 559.918 25.1008C561.033 21.7056 561.092 14.1591 552.411 11.1347C541.56 7.35413 536.654 15.564 535.632 18.94C534.288 16.6314 523.161 12.9082 516.878 21.4049Z" fill="#FBFBFB" stroke="#FBFBFB" stroke-width="4"/>
<path d="M577.048 36.1608L572.227 26.812C571.537 25.6515 570.844 24.5502 570.145 23.5071C561.437 10.5202 549.366 5.40132 534.207 8.55589C522.495 10.9931 513.723 22.5689 511.348 33.4425C510.183 38.7733 509.81 43.9744 509.889 47.8367C506.856 48.4678 501.573 43.8175 502.092 39.3961C502.611 34.9746 507.388 31.6801 511.348 33.4425C513.723 22.5689 522.495 10.9931 534.207 8.55589C549.366 5.40132 561.437 10.5202 570.145 23.5071C572.516 22.5343 577.851 21.5008 580.22 25.1486C582.59 28.7964 579.093 34.01 577.048 36.1608Z" fill="#71EBBE"/>
<path d="M570.145 23.5071C561.437 10.5202 549.366 5.40132 534.207 8.55589C522.495 10.9931 513.723 22.5689 511.348 33.4425M570.145 23.5071C570.844 24.5502 571.537 25.6515 572.227 26.812L577.048 36.1608C579.093 34.01 582.59 28.7964 580.22 25.1486C577.851 21.5008 572.516 22.5343 570.145 23.5071ZM511.348 33.4425C510.183 38.7733 509.81 43.9744 509.889 47.8367C506.856 48.4678 501.573 43.8175 502.092 39.3961C502.611 34.9746 507.388 31.6801 511.348 33.4425Z" stroke="#71EBBE" stroke-width="3" stroke-linecap="round" stroke-linejoin="round"/>
<path d="M528.009 42.5033C529.953 44.0157 534.66 45.7202 537.932 40.4384M546.086 38.0025C548.892 39.0481 552.076 39.8005 554.383 35.4097M537.206 53.3658C540.972 54.8825 548.491 56.1135 553.343 49.5826" stroke="black" stroke-width="3" stroke-linecap="round" stroke-linejoin="round"/>
<path d="M6.57812 331.578C5.07031 331.578 3.94531 330.375 3.9375 328.328C3.94531 326.273 5.10938 325.094 6.57812 325.094C7.65625 325.094 8.13281 325.766 8.32812 326.156H8.40625V325.219H9.76562V329.594C9.78906 330.164 10.0156 330.445 10.4844 330.438C11.3672 330.445 11.9453 329.422 11.9531 327.906C11.9688 325.078 9.94531 323.219 7.03125 323.219C4.02344 323.227 2.10156 325.477 2.09375 328.328C2.09375 331.43 3.77344 333.477 6.96875 333.453C8.07031 333.445 8.85156 333.359 9.76562 333.109V334.359C8.94531 334.594 8 334.734 6.96875 334.734C3.10156 334.734 0.78125 332.266 0.78125 328.328C0.773438 324.633 3.36719 321.938 7.03125 321.938C10.7344 321.938 13.2734 324.469 13.2656 327.859C13.2656 330.258 12.0391 331.648 10.375 331.641C9.35938 331.641 8.60156 331.125 8.48438 330.406H8.40625C8.21094 330.805 7.71094 331.578 6.57812 331.578ZM5.40625 328.312C5.39844 329.445 5.94531 330.289 6.92188 330.297C7.91406 330.289 8.42969 329.508 8.4375 328.312C8.42969 327.148 7.92188 326.383 6.92188 326.375C5.9375 326.383 5.39844 327.211 5.40625 328.312ZM15.0469 334V332.75L18.9688 328.797C20.2109 327.508 20.8281 326.789 20.8281 325.797C20.8281 324.68 19.9219 323.969 18.7344 323.969C17.4766 323.969 16.6797 324.766 16.6719 325.969H15.0469C15.0312 323.898 16.6094 322.531 18.7656 322.531C20.9453 322.531 22.4531 323.914 22.4688 325.75C22.4531 327.016 21.8594 328.023 19.7344 330.109L17.4375 332.438V332.531H22.6562V334H15.0469ZM28.5 334.156C25.8828 334.156 24.3438 332.047 24.3438 328.344C24.3438 324.664 25.8984 322.531 28.5 322.531C31.0938 322.531 32.6484 324.664 32.6562 328.344C32.6484 332.047 31.1172 334.156 28.5 334.156ZM26.0625 328.344C26.0547 331.164 26.9688 332.672 28.5 332.672C30.0234 332.672 30.9375 331.164 30.9375 328.344C30.9375 325.531 30.0156 323.992 28.5 323.984C26.9766 323.992 26.0625 325.531 26.0625 328.344ZM34.4375 334V332.75L38.3594 328.797C39.6016 327.508 40.2188 326.789 40.2188 325.797C40.2188 324.68 39.3125 323.969 38.125 323.969C36.8672 323.969 36.0703 324.766 36.0625 325.969H34.4375C34.4219 323.898 36 322.531 38.1562 322.531C40.3359 322.531 41.8438 323.914 41.8594 325.75C41.8438 327.016 41.25 328.023 39.125 330.109L36.8281 332.438V332.531H42.0469V334H34.4375ZM47.7969 334.156C45.6562 334.156 44.0469 332.852 43.9688 331.047H45.6406C45.7344 332.008 46.6562 332.711 47.7969 332.719C49.1719 332.711 50.1562 331.719 50.1562 330.375C50.1562 329 49.1406 328 47.7188 327.984C46.8125 327.984 46.1172 328.289 45.7344 328.984H44.1094L44.8438 322.688H51.25V324.156H46.2656L45.8906 327.328H46C46.4688 326.875 47.2656 326.57 48.125 326.562C50.2578 326.57 51.8281 328.148 51.8281 330.328C51.8281 332.555 50.1562 334.156 47.7969 334.156Z" fill="#FBFBFB" fill-opacity="0.8"/>
</svg>
