<svg width="138" height="24" viewBox="0 0 138 24" fill="none" xmlns="http://www.w3.org/2000/svg">
<path d="M19.425 19H8.15C6.93333 19 5.83333 18.775 4.85 18.325C3.86667 17.875 3.01667 17.25 2.3 16.45C1.6 15.65 1.05833 14.725 0.675 13.675C0.291667 12.6083 0.1 11.4667 0.1 10.25C0.1 9.05 0.291667 7.925 0.675 6.875C1.05833 5.80833 1.6 4.875 2.3 4.075C3.01667 3.25833 3.86667 2.625 4.85 2.175C5.83333 1.725 6.93333 1.5 8.15 1.5H19.425V4H8.15C7 4 6.00833 4.28333 5.175 4.85C4.35833 5.4 3.725 6.15 3.275 7.1C2.825 8.05 2.6 9.1 2.6 10.25C2.6 11.4 2.825 12.45 3.275 13.4C3.725 14.3333 4.35833 15.0833 5.175 15.65C6.00833 16.2167 7 16.5 8.15 16.5H19.425V19ZM38.4943 12.125C38.4943 13.075 38.3193 13.9667 37.9693 14.8C37.6193 15.6167 37.1277 16.3417 36.4943 16.975C35.8777 17.6083 35.1527 18.1083 34.3193 18.475C33.5027 18.825 32.6193 19 31.6693 19H27.8193C26.8693 19 25.9777 18.825 25.1443 18.475C24.3277 18.1083 23.6027 17.6083 22.9693 16.975C22.3527 16.3417 21.8693 15.6167 21.5193 14.8C21.1693 13.9667 20.9943 13.075 20.9943 12.125C20.9943 11.175 21.1693 10.2917 21.5193 9.475C21.8693 8.64167 22.3527 7.90833 22.9693 7.275C23.6027 6.64167 24.3277 6.15 25.1443 5.8C25.9777 5.43333 26.8693 5.25 27.8193 5.25H31.6693C32.6193 5.25 33.5027 5.43333 34.3193 5.8C35.1527 6.15 35.8777 6.64167 36.4943 7.275C37.1277 7.90833 37.6193 8.64167 37.9693 9.475C38.3193 10.2917 38.4943 11.175 38.4943 12.125ZM35.9943 12.125C35.9943 11.325 35.8027 10.6 35.4193 9.95C35.036 9.28333 34.511 8.75 33.8443 8.35C33.1943 7.95 32.4693 7.75 31.6693 7.75H27.8193C27.0193 7.75 26.2943 7.95 25.6443 8.35C24.9943 8.75 24.4693 9.28333 24.0693 9.95C23.686 10.6 23.4943 11.325 23.4943 12.125C23.4943 12.925 23.686 13.6583 24.0693 14.325C24.4693 14.975 24.9943 15.5 25.6443 15.9C26.2943 16.3 27.0193 16.5 27.8193 16.5H31.6693C32.4693 16.5 33.1943 16.3 33.8443 15.9C34.511 15.5 35.036 14.975 35.4193 14.325C35.8027 13.6583 35.9943 12.925 35.9943 12.125ZM56.5547 19H54.0547V7.75H47.1797C46.3797 7.75 45.6547 7.95 45.0047 8.35C44.3547 8.73333 43.8297 9.25833 43.4297 9.925C43.0464 10.5917 42.8547 11.325 42.8547 12.125C42.8547 12.925 43.0464 13.6583 43.4297 14.325C43.8297 14.975 44.3547 15.5 45.0047 15.9C45.6547 16.2833 46.3797 16.4833 47.1797 16.5H52.8047V19H47.1797C46.2297 19 45.338 18.825 44.5047 18.475C43.688 18.1083 42.963 17.6083 42.3297 16.975C41.713 16.3417 41.2297 15.6167 40.8797 14.8C40.5297 13.9667 40.3547 13.075 40.3547 12.125C40.3547 11.175 40.5297 10.2917 40.8797 9.475C41.2297 8.64167 41.713 7.90833 42.3297 7.275C42.963 6.64167 43.688 6.15 44.5047 5.8C45.338 5.43333 46.2297 5.25 47.1797 5.25H54.0547V0.249999H56.5547V19ZM76.1506 9.625C76.1506 10.425 75.9506 11.1583 75.5506 11.825C75.1673 12.4917 74.6423 13.025 73.9756 13.425C73.3256 13.8083 72.5923 14 71.7756 14H62.2006C62.5506 14.7333 63.0673 15.3333 63.7506 15.8C64.4506 16.2667 65.2339 16.5 66.1006 16.5H74.2756V19H66.1006C65.1506 19 64.2589 18.825 63.4256 18.475C62.6089 18.1083 61.8839 17.6083 61.2506 16.975C60.6339 16.3417 60.1506 15.6167 59.8006 14.8C59.4506 13.9667 59.2756 13.075 59.2756 12.125C59.2756 11.175 59.4506 10.2917 59.8006 9.475C60.1506 8.64167 60.6339 7.90833 61.2506 7.275C61.8839 6.64167 62.6089 6.15 63.4256 5.8C64.2589 5.43333 65.1506 5.25 66.1006 5.25H71.7756C72.5923 5.25 73.3256 5.45 73.9756 5.85C74.6423 6.23333 75.1673 6.75833 75.5506 7.425C75.9506 8.075 76.1506 8.80833 76.1506 9.625ZM71.7756 11.5C72.2923 11.5 72.7339 11.3167 73.1006 10.95C73.4673 10.5833 73.6506 10.1417 73.6506 9.625C73.6506 9.10833 73.4673 8.66667 73.1006 8.3C72.7339 7.93333 72.2923 7.75 71.7756 7.75H66.1006C65.3673 7.75 64.6923 7.91667 64.0756 8.25C63.4756 8.58333 62.9756 9.03333 62.5756 9.6C62.1756 10.1667 61.9256 10.8 61.8256 11.5H71.7756ZM99.1076 7.75C99.1076 8.9 98.8243 9.95 98.2576 10.9C97.7076 11.8333 96.9576 12.5833 96.0076 13.15C95.0576 13.7167 94.0076 14 92.8576 14H82.8076V11.525H92.8576C93.5576 11.525 94.191 11.3583 94.7576 11.025C95.3243 10.675 95.7743 10.2167 96.1076 9.65C96.441 9.06667 96.6076 8.43333 96.6076 7.75C96.6076 7.05 96.441 6.41667 96.1076 5.85C95.7743 5.28333 95.3243 4.83333 94.7576 4.5C94.191 4.16667 93.5576 4 92.8576 4H81.4076V19H78.9076V1.5H92.8576C94.0076 1.5 95.0576 1.78333 96.0076 2.35C96.9576 2.9 97.7076 3.65 98.2576 4.6C98.8243 5.55 99.1076 6.6 99.1076 7.75ZM118.157 12.125C118.157 13.075 117.982 13.9667 117.632 14.8C117.282 15.6167 116.791 16.3417 116.157 16.975C115.541 17.6083 114.816 18.1083 113.982 18.475C113.166 18.825 112.282 19 111.332 19H107.482C106.532 19 105.641 18.825 104.807 18.475C103.991 18.1083 103.266 17.6083 102.632 16.975C102.016 16.3417 101.532 15.6167 101.182 14.8C100.832 13.9667 100.657 13.075 100.657 12.125C100.657 11.175 100.832 10.2917 101.182 9.475C101.532 8.64167 102.016 7.90833 102.632 7.275C103.266 6.64167 103.991 6.15 104.807 5.8C105.641 5.43333 106.532 5.25 107.482 5.25H111.332C112.282 5.25 113.166 5.43333 113.982 5.8C114.816 6.15 115.541 6.64167 116.157 7.275C116.791 7.90833 117.282 8.64167 117.632 9.475C117.982 10.2917 118.157 11.175 118.157 12.125ZM115.657 12.125C115.657 11.325 115.466 10.6 115.082 9.95C114.699 9.28333 114.174 8.75 113.507 8.35C112.857 7.95 112.132 7.75 111.332 7.75H107.482C106.682 7.75 105.957 7.95 105.307 8.35C104.657 8.75 104.132 9.28333 103.732 9.95C103.349 10.6 103.157 11.325 103.157 12.125C103.157 12.925 103.349 13.6583 103.732 14.325C104.132 14.975 104.657 15.5 105.307 15.9C105.957 16.3 106.682 16.5 107.482 16.5H111.332C112.132 16.5 112.857 16.3 113.507 15.9C114.174 15.5 114.699 14.975 115.082 14.325C115.466 13.6583 115.657 12.925 115.657 12.125ZM137.093 12.125C137.093 13.075 136.918 13.9667 136.568 14.8C136.218 15.6167 135.726 16.3417 135.093 16.975C134.476 17.6083 133.751 18.1083 132.918 18.475C132.101 18.825 131.218 19 130.268 19H124.643V16.5H130.268C131.068 16.4833 131.793 16.2833 132.443 15.9C133.109 15.5 133.634 14.975 134.018 14.325C134.401 13.6583 134.593 12.925 134.593 12.125C134.593 11.325 134.401 10.5917 134.018 9.925C133.634 9.25833 133.109 8.73333 132.443 8.35C131.793 7.95 131.068 7.75 130.268 7.75H123.393V24H120.893V5.25H130.268C131.218 5.25 132.101 5.43333 132.918 5.8C133.751 6.15 134.476 6.64167 135.093 7.275C135.726 7.90833 136.218 8.64167 136.568 9.475C136.918 10.2917 137.093 11.175 137.093 12.125Z" fill="black"/>
</svg>
