<svg width="30" height="30" viewBox="0 0 30 30" fill="none" xmlns="http://www.w3.org/2000/svg">
<circle cx="15" cy="15" r="15" fill="white" fill-opacity="0.8"/>
<path d="M9 9H11.25L12.75 7.5H17.25L18.75 9H21C21.3978 9 21.7794 9.15804 22.0607 9.43934C22.342 9.72064 22.5 10.1022 22.5 10.5V19.5C22.5 19.8978 22.342 20.2794 22.0607 20.5607C21.7794 20.842 21.3978 21 21 21H9C8.60218 21 8.22064 20.842 7.93934 20.5607C7.65804 20.2794 7.5 19.8978 7.5 19.5V10.5C7.5 10.1022 7.65804 9.72064 7.93934 9.43934C8.22064 9.15804 8.60218 9 9 9ZM15 11.25C14.0054 11.25 13.0516 11.6451 12.3483 12.3484C11.6451 13.0516 11.25 14.0054 11.25 15C11.25 15.9946 11.6451 16.9484 12.3483 17.6517C13.0516 18.3549 14.0054 18.75 15 18.75C15.9946 18.75 16.9484 18.3549 17.6517 17.6517C18.3549 16.9484 18.75 15.9946 18.75 15C18.75 14.0054 18.3549 13.0516 17.6517 12.3484C16.9484 11.6451 15.9946 11.25 15 11.25ZM15 12.75C15.5967 12.75 16.169 12.9871 16.591 13.409C17.0129 13.831 17.25 14.4033 17.25 15C17.25 15.5967 17.0129 16.169 16.591 16.591C16.169 17.0129 15.5967 17.25 15 17.25C14.4033 17.25 13.831 17.0129 13.409 16.591C12.9871 16.169 12.75 15.5967 12.75 15C12.75 14.4033 12.9871 13.831 13.409 13.409C13.831 12.9871 14.4033 12.75 15 12.75Z" fill="#1E1E1E"/>
</svg>
