<svg width="150" height="119" viewBox="0 0 150 119" fill="none" xmlns="http://www.w3.org/2000/svg">
<path d="M106.325 0.00119965C106.421 -0.000799697 125.98 -0.38974 146.394 14.8586C146.407 14.8833 147.864 17.5084 150 22.2014V112.173C143.37 115.668 134.603 118.502 123.354 118.858C123.354 118.858 118.202 112.715 113.909 107.429C132.655 102.144 139.811 90.5715 139.811 90.5715C133.943 94.4287 128.362 97.1433 123.354 99.0002C116.198 102 109.329 103.858 102.604 105.144C88.8659 107.715 76.2727 107.001 65.54 105.001C57.3832 103.429 50.371 101.287 44.5039 98.8576C41.2126 97.5725 37.635 96.0004 34.0576 94.0002C33.6285 93.7148 33.1993 93.5717 32.7705 93.2864C32.4845 93.1437 32.3405 93.0002 32.1973 93.0002C29.6214 91.5716 28.1904 90.5715 28.1904 90.5715C28.1904 90.5715 35.0597 101.858 53.2334 107.286C48.9586 112.692 43.6919 118.946 43.6465 119C12.0212 118 0 97.4289 0 97.4289C3.04801e-05 51.8581 20.6064 14.8586 20.6064 14.8586C41.1636 -0.390153 60.5818 0.000219234 60.6748 0.00217621L62.1064 1.71604C36.3964 8.98833 24.657 20.2454 24.6133 20.2873C24.6349 20.2756 27.7801 18.5653 33.0566 16.2873C48.3687 9.57295 60.5323 7.85878 65.541 7.28733C66.3997 7.14441 67.1156 7.0012 67.9736 7.0012C76.7029 5.85835 86.5769 5.57349 96.8799 6.71604C110.475 8.28743 125.071 12.2875 139.953 20.2873C139.906 20.2429 128.598 9.55771 104.321 2.28733L106.325 0.00119965ZM56.8115 52.7151C48.6547 52.7151 42.2148 59.7153 42.2148 68.4299C42.2149 77.1441 48.7979 84.1437 56.8115 84.1438C64.9681 84.1438 71.4081 77.1442 71.4082 68.4299C71.5514 59.7156 64.9684 52.7151 56.8115 52.7151ZM109.043 52.7151C100.887 52.7152 94.4473 59.7153 94.4473 68.4299C94.4473 77.1441 101.03 84.1437 109.043 84.1438C117.2 84.1438 123.64 77.1442 123.64 68.4299C123.64 59.7153 117.057 52.7151 109.043 52.7151Z" fill="#7885AF" fill-opacity="0.4"/>
</svg>
