<svg width="22" height="22" viewBox="0 0 22 22" fill="none" xmlns="http://www.w3.org/2000/svg">
<path d="M20.1001 8.38636V6.47727H19.1456V4.56818H18.1911V3.61364H17.2365V2.65909H15.3274V1.70455H13.4183V0.75H7.69105V1.70455H5.78196V2.65909H3.87287V3.61364H2.91832V4.56818H1.96378V6.47727H1.00923V8.38636H0.0546875V15.0682H1.00923V16.0227H1.96378V17.9318H2.91832V18.8864H3.87287V19.8409H5.78196V20.7955H7.69105V21.75H13.4183V20.7955H15.3274V19.8409H17.2365V18.8864H18.1911V17.9318H19.1456V16.0227H20.1001V14.1136H21.0547V8.38636H20.1001ZM19.1456 9.34091V13.1591H16.282V9.34091H19.1456ZM14.3729 3.61364H15.3274V4.56818H17.2365V6.47727H18.1911V7.43182H15.3274V4.56818H14.3729V3.61364ZM12.4638 16.9773V18.8864H11.5092V19.8409H9.60014V18.8864H8.6456V16.9773H7.69105V15.0682H13.4183V16.9773H12.4638ZM14.3729 9.34091V13.1591H6.73651V9.34091H14.3729ZM7.69105 5.52273H8.6456V3.61364H9.60014V2.65909H11.5092V3.61364H12.4638V5.52273H13.4183V7.43182H7.69105V5.52273ZM2.91832 6.47727H3.87287V4.56818H5.78196V3.61364H6.73651V4.56818H5.78196V7.43182H2.91832V6.47727ZM1.96378 13.1591V9.34091H4.82741V13.1591H1.96378ZM3.87287 17.9318V16.0227H2.91832V15.0682H5.78196V17.9318H6.73651V18.8864H5.78196V17.9318H3.87287ZM17.2365 16.0227V17.9318H15.3274V18.8864H14.3729V17.9318H15.3274V15.0682H18.1911V16.0227H17.2365Z" fill="#1C1C1C"/>
</svg>
