<svg width="173" height="174" viewBox="0 0 173 174" fill="none" xmlns="http://www.w3.org/2000/svg">
<path d="M85.9191 0C40.6328 0 3.52842 35.243 0 80.0227L46.2111 99.3023C50.1283 96.5986 54.8584 95.0199 59.9419 95.0199C60.4014 95.0199 60.8549 95.0317 61.3026 95.0553L81.8546 64.996V64.5719C81.8546 46.4821 96.4396 31.7617 114.37 31.7617C132.301 31.7617 146.88 46.4821 146.88 64.5719C146.88 82.6616 132.295 97.382 114.37 97.382C114.117 97.382 113.875 97.382 113.628 97.3703L84.3169 118.476C84.3345 118.859 84.3463 119.254 84.3463 119.636C84.3463 133.22 73.4017 144.271 59.9419 144.271C48.1314 144.271 38.253 135.759 36.0146 124.49L2.97471 110.712C13.2124 147.233 46.4526 174 85.925 174C133.538 174 172.144 135.046 172.144 86.997C172.144 38.9481 133.532 0 85.9191 0Z" fill="#10223B" fill-opacity="0.25"/>
<path d="M54.0351 132.012L43.4439 127.6C45.323 131.541 48.5687 134.84 52.8806 136.654C62.1993 140.571 72.9495 136.112 76.8314 126.699C78.7105 122.146 78.7222 117.121 76.8608 112.556C74.9994 107.991 71.4828 104.433 66.9707 102.53C62.488 100.651 57.6872 100.722 53.4696 102.324L64.4083 106.889C71.2825 109.782 74.5341 117.746 71.6654 124.679C68.8026 131.618 60.9034 134.899 54.0351 132.006" fill="#10223B" fill-opacity="0.25"/>
<path d="M98.1301 64.5365C98.1301 55.471 105.417 48.1196 114.406 48.1196C123.394 48.1196 130.675 55.471 130.675 64.5365C130.675 73.602 123.389 80.9593 114.406 80.9593C105.423 80.9593 98.1301 73.6079 98.1301 64.5365ZM136.036 64.5777C136.036 52.5198 126.316 42.7121 114.37 42.7121C102.424 42.7121 92.7108 52.5198 92.7108 64.5777C92.7108 76.6356 102.424 86.4375 114.37 86.4375C126.316 86.4375 136.036 76.6356 136.036 64.5777Z" fill="#10223B" fill-opacity="0.25"/>
</svg>
