<svg width="24" height="24" viewBox="0 0 24 24" fill="none" xmlns="http://www.w3.org/2000/svg">
<path d="M11.9791 0C5.66513 0 0.491941 4.8611 0 11.0376L6.44287 13.6969C6.98901 13.3239 7.6485 13.1062 8.35725 13.1062C8.42131 13.1062 8.48455 13.1078 8.54697 13.1111L11.4124 8.96496V8.90646C11.4124 6.41132 13.4458 4.38092 15.9458 4.38092C18.4457 4.38092 20.4784 6.41132 20.4784 8.90646C20.4784 11.4016 18.4449 13.432 15.9458 13.432C15.9105 13.432 15.8768 13.432 15.8423 13.4304L11.7557 16.3415C11.7581 16.3943 11.7598 16.4488 11.7598 16.5016C11.7598 18.3752 10.2339 19.8994 8.35725 19.8994C6.7106 19.8994 5.33333 18.7253 5.02125 17.1711L0.414742 15.2707C1.84211 20.3081 6.47654 24 11.9799 24C18.6182 24 24.0008 18.627 24.0008 11.9996C24.0008 5.37215 18.6174 0 11.9791 0Z" fill="white"/>
<path d="M7.53524 18.2086L6.05859 17.6C6.32058 18.1436 6.7731 18.5986 7.37427 18.8488C8.67352 19.3891 10.1723 18.7741 10.7136 17.4757C10.9755 16.8477 10.9772 16.1546 10.7177 15.525C10.4581 14.8953 9.96784 14.4045 9.33875 14.1421C8.71376 13.8829 8.04443 13.8927 7.4564 14.1137L8.9815 14.7433C9.93992 15.1423 10.3933 16.2408 9.9933 17.1971C9.59416 18.1542 8.49284 18.6075 7.53524 18.2086Z" fill="white"/>
<path d="M13.6813 8.90162C13.6813 7.6512 14.6973 6.63722 15.9505 6.63722C17.2038 6.63722 18.2189 7.6512 18.2189 8.90162C18.2189 10.152 17.203 11.1668 15.9505 11.1668C14.6981 11.1668 13.6813 10.1528 13.6813 8.90162ZM18.9662 8.9073C18.9662 7.24414 17.6111 5.89136 15.9456 5.89136C14.2801 5.89136 12.9258 7.24414 12.9258 8.9073C12.9258 10.5705 14.2801 11.9224 15.9456 11.9224C17.6111 11.9224 18.9662 10.5705 18.9662 8.9073Z" fill="white"/>
</svg>
