<svg width="21" height="20" viewBox="0 0 21 20" fill="none" xmlns="http://www.w3.org/2000/svg">
<path d="M21 8.625H18.25V5.875H16.875V8.625H14.125V10H16.875V12.75H18.25V10H21V8.625ZM7.25 1.75C7.92987 1.75 8.59448 1.95161 9.15977 2.32932C9.72507 2.70704 10.1657 3.2439 10.4258 3.87203C10.686 4.50015 10.7541 5.19131 10.6214 5.85812C10.4888 6.52493 10.1614 7.13744 9.68068 7.61818C9.19994 8.09892 8.58743 8.42631 7.92062 8.55895C7.25381 8.69159 6.56265 8.62351 5.93453 8.36334C5.3064 8.10316 4.76954 7.66257 4.39182 7.09727C4.01411 6.53198 3.8125 5.86737 3.8125 5.1875C3.8125 4.27582 4.17466 3.40148 4.81932 2.75682C5.46398 2.11216 6.33832 1.75 7.25 1.75ZM7.25 0.375C6.29818 0.375 5.36773 0.657248 4.57632 1.18605C3.78491 1.71486 3.16808 2.46647 2.80383 3.34584C2.43958 4.22521 2.34428 5.19284 2.52997 6.12637C2.71566 7.05991 3.17401 7.91741 3.84705 8.59045C4.52009 9.26349 5.37759 9.72184 6.31113 9.90753C7.24466 10.0932 8.21229 9.99792 9.09166 9.63367C9.97103 9.26942 10.7226 8.65259 11.2514 7.86118C11.7803 7.06977 12.0625 6.13932 12.0625 5.1875C12.0625 3.91115 11.5555 2.68707 10.653 1.78455C9.75043 0.88203 8.52635 0.375 7.25 0.375ZM14.125 19.625H12.75V16.1875C12.75 15.2758 12.3878 14.4015 11.7432 13.7568C11.0985 13.1122 10.2242 12.75 9.3125 12.75H5.1875C4.27582 12.75 3.40148 13.1122 2.75682 13.7568C2.11216 14.4015 1.75 15.2758 1.75 16.1875V19.625H0.375V16.1875C0.375 14.9111 0.88203 13.6871 1.78455 12.7845C2.68707 11.882 3.91115 11.375 5.1875 11.375H9.3125C10.5889 11.375 11.8129 11.882 12.7155 12.7845C13.618 13.6871 14.125 14.9111 14.125 16.1875V19.625Z" fill="#111111"/>
</svg>
