<svg width="24" height="24" viewBox="0 0 24 24" fill="none" xmlns="http://www.w3.org/2000/svg">
<path fill-rule="evenodd" clip-rule="evenodd" d="M13.5735 3.13798C13.3928 3.1061 13.2068 3.12406 13.0355 3.18993C12.8642 3.25581 12.7141 3.36711 12.6013 3.51187C12.4886 3.65664 12.4173 3.8294 12.3954 4.0116C12.3734 4.19379 12.4014 4.37853 12.4765 4.54598C12.9748 5.65587 13.1239 6.89101 12.904 8.08758C12.6841 9.28415 12.1057 10.3856 11.2454 11.2459C10.3852 12.1061 9.28371 12.6846 8.08714 12.9044C6.89057 13.1243 5.65543 12.9752 4.54554 12.477C4.37805 12.4016 4.19319 12.3733 4.01083 12.3952C3.82848 12.4171 3.65554 12.4883 3.51062 12.6011C3.36571 12.7139 3.2543 12.8641 3.18838 13.0355C3.12247 13.207 3.10454 13.3931 3.13654 13.574C3.52794 15.7916 4.73645 17.7818 6.52351 19.152C8.31058 20.5221 10.5463 21.1726 12.7895 20.9749C15.0327 20.7772 17.1203 19.7459 18.6402 18.0843C20.1601 16.4228 21.002 14.2518 20.9995 12C20.9997 9.88588 20.2556 7.8392 18.8978 6.2188C17.54 4.5984 15.6551 3.50771 13.5735 3.13798Z" fill="white"/>
</svg>
