<svg width="26" height="26" viewBox="0 0 26 26" fill="none" xmlns="http://www.w3.org/2000/svg">
<path d="M14.5898 22.166C14.3759 22.8401 13.7418 23.333 13 23.333C12.2582 23.333 11.6241 22.8401 11.4102 22.166H14.5898ZM13 1.58301C13.9156 1.58301 14.667 2.33449 14.667 3.25V3.94629L15.0234 4.05371C18.062 4.96548 20.083 7.69596 20.083 10.833V17.54L22.25 19.707V20.083H3.75V19.707L5.91699 17.54V10.833C5.91699 7.69597 7.93798 4.96549 10.9766 4.05371L11.333 3.94629V3.25C11.333 2.33449 12.0844 1.58301 13 1.58301ZM13 4.91602C9.69053 4.91602 7.08301 7.52353 7.08301 10.833V18.916H18.917V10.833C18.917 7.52353 16.3094 4.91602 13 4.91602Z" fill="black" stroke="black"/>
</svg>
