<svg width="26" height="26" viewBox="0 0 26 26" fill="none" xmlns="http://www.w3.org/2000/svg">
<path d="M10.8333 21.6663H15.1667C15.1667 22.858 14.1917 23.833 13 23.833C11.8083 23.833 10.8333 22.858 10.8333 21.6663ZM22.75 19.4997V20.583H3.25V19.4997L5.41667 17.333V10.833C5.41667 7.47467 7.58333 4.54967 10.8333 3.57467V3.24967C10.8333 2.05801 11.8083 1.08301 13 1.08301C14.1917 1.08301 15.1667 2.05801 15.1667 3.24967V3.57467C18.4167 4.54967 20.5833 7.47467 20.5833 10.833V17.333L22.75 19.4997ZM18.4167 10.833C18.4167 7.79967 16.0333 5.41634 13 5.41634C9.96667 5.41634 7.58333 7.79967 7.58333 10.833V18.4163H18.4167V10.833Z" fill="white"/>
</svg>
