<svg width="41" height="41" viewBox="0 0 41 41" fill="none" xmlns="http://www.w3.org/2000/svg">
<g clip-path="url(#clip0_132_514)">
<rect width="40.6973" height="40.6973" rx="20.3487" fill="#DDE6ED"/>
<path d="M20.3485 8.47852C22.4285 8.47852 24.4234 9.29363 25.8942 10.7446C27.365 12.1955 28.1912 14.1633 28.1912 16.2152C28.1912 18.2672 27.365 20.235 25.8942 21.6859C24.4234 23.1369 22.4285 23.952 20.3485 23.952C18.2685 23.952 16.2737 23.1369 14.8029 21.6859C13.3321 20.235 12.5058 18.2672 12.5058 16.2152C12.5058 14.1633 13.3321 12.1955 14.8029 10.7446C16.2737 9.29363 18.2685 8.47852 20.3485 8.47852ZM20.3485 27.8204C29.0147 27.8204 36.0339 31.2825 36.0339 35.5571V49.8118H4.66309V35.5571C4.66309 31.2825 11.6823 27.8204 20.3485 27.8204Z" fill="white"/>
</g>
<defs>
<clipPath id="clip0_132_514">
<rect width="40.6973" height="40.6973" rx="20.3487" fill="white"/>
</clipPath>
</defs>
</svg>
